<?xml version="1.0" standalone="no"?>
<!DOCTYPE svg PUBLIC "-//W3C//DTD SVG 1.1//EN" "http://www.w3.org/Graphics/SVG/1.1/DTD/svg11.dtd" >
<!--
2013-9-30: Created.
-->
<svg>
<metadata>
Created by iconfont
</metadata>
<defs>

<font id="iconfont" horiz-adv-x="1024" >
  <font-face
    font-family="iconfont"
    font-weight="500"
    font-stretch="normal"
    units-per-em="1024"
    ascent="896"
    descent="-128"
  />
    <missing-glyph />
    
    <glyph glyph-name="x" unicode="x" horiz-adv-x="1001"
d="M281 543q-27 -1 -53 -1h-83q-18 0 -36.5 -6t-32.5 -18.5t-23 -32t-9 -45.5v-76h912v41q0 16 -0.5 30t-0.5 18q0 13 -5 29t-17 29.5t-31.5 22.5t-49.5 9h-133v-97h-438v97zM955 310v-52q0 -23 0.5 -52t0.5 -58t-10.5 -47.5t-26 -30t-33 -16t-31.5 -4.5q-14 -1 -29.5 -0.5
t-29.5 0.5h-32l-45 128h-439l-44 -128h-29h-34q-20 0 -45 1q-25 0 -41 9.5t-25.5 23t-13.5 29.5t-4 30v167h911zM163 247q-12 0 -21 -8.5t-9 -21.5t9 -21.5t21 -8.5q13 0 22 8.5t9 21.5t-9 21.5t-22 8.5zM316 123q-8 -26 -14 -48q-5 -19 -10.5 -37t-7.5 -25t-3 -15t1 -14.5
t9.5 -10.5t21.5 -4h37h67h81h80h64h36q23 0 34 12t2 38q-5 13 -9.5 30.5t-9.5 34.5q-5 19 -11 39h-368zM336 498v228q0 11 2.5 23t10 21.5t20.5 15.5t34 6h188q31 0 51.5 -14.5t20.5 -52.5v-227h-327z" />
    

    
    <glyph glyph-name="help" unicode="&#58630;" d="M1024 384C1024 666.77 794.77 896 512 896S0 666.77 0 384s229.23-512 512-512c117.41 0 228.826 39.669 318.768 111.313 10.79 8.595 12.569 24.308 3.975 35.097-8.594 10.789-24.308 12.568-35.097 3.974C718.47-42.277 618.002-78.049 512-78.049 256.818-78.049 49.951 128.818 49.951 384S256.818 846.049 512 846.049 974.049 639.182 974.049 384c0-87.493-24.334-171.337-69.578-243.96-7.294-11.708-3.716-27.112 7.992-34.405 11.707-7.294 27.11-3.716 34.405 7.991C997.014 194.12 1024 287.102 1024 384zM533.079 204.581c18.839 0 34.111-15.255 34.111-34.092v-9.03c0-18.83-15.14-34.094-34.111-34.094-18.84 0-34.112 15.256-34.112 34.093v9.03c0 18.83 15.141 34.093 34.112 34.093zM374.634 477.345s2.675-23.556 28.998-23.556 27.88 23.556 27.88 23.556c-1.744 76.274 33.596 112.493 105.944 108.895 48.156-5.437 73.107-32.62 74.775-81.631-3.337-21.827-21.613-50.05-54.147-84.51-43.076-43.574-64.613-82.59-64.613-117.05v-35.338s3.305-21.077 27.111-21.077c23.807 0 27.112 21.077 27.112 21.077v24.545c0 28.783 20.628 63.402 61.959 103.458 43.227 39.816 64.688 76.194 64.688 108.895-3.564 90.665-50.81 137.917-142.118 141.595-105.034 1.759-157.589-54.527-157.589-168.859z"  horiz-adv-x="1024" />

    
    <glyph glyph-name="information" unicode="&#58631;" d="M544.316 624.349v-53.611c0-4.41-2.957-7.358-7.358-7.358h-49.957c-4.421 0-7.317 2.948-7.317 7.358v53.611c0 4.41 2.896 7.358 7.317 7.358h49.957c4.4 0 7.358-2.948 7.358-7.358zM542.842 476.727v-337.149c0-4.4-2.947-7.347-7.357-7.347h-47c-4.4 0-7.348 2.947-7.348 7.347V476.727c0 4.4 2.947 7.347 7.347 7.347h47c4.411 0 7.358-2.947 7.358-7.347zM1023.99 384.005c0-91.258-24.313-180.859-70.31-259.101-5.731-9.752-18.267-13.006-28.008-7.276-9.753 5.73-13.007 18.266-7.276 28.018 42.303 71.96 64.663 154.387 64.663 238.36 0 63.598-12.454 125.293-37.013 183.355-23.72 56.088-57.684 106.465-100.95 149.73-43.265 43.266-93.642 77.24-149.74 100.96C637.294 842.61 575.609 855.053 512 855.053S386.706 842.61 328.644 818.051c-56.098-23.72-106.475-57.694-149.74-100.96s-77.23-93.642-100.95-149.73C53.395 509.3 40.941 447.604 40.941 384.005c0-63.609 12.454-125.293 37.013-183.356 23.72-56.087 57.684-106.465 100.95-149.74 43.265-43.266 93.642-77.23 149.74-100.95C386.706-74.6 448.391-87.052 512-87.052c117.946 0 230.796 43.797 317.767 123.308 8.34 7.624 21.285 7.04 28.909-1.3s7.05-21.284-1.29-28.908C762.853-80.381 640.19-127.986 512-127.986c-69.114 0-136.171 13.539-199.3 40.247-60.978 25.787-115.725 62.698-162.736 109.709S66.044 123.737 40.256 184.706C13.548 247.834 0.009 314.891 0.009 384.006s13.539 136.16 40.247 199.298c25.787 60.969 62.698 115.716 109.708 162.737 47.011 47.01 101.758 83.921 162.737 109.708C375.829 882.447 442.886 895.986 512 895.986s136.171-13.539 199.3-40.237c60.978-25.787 115.725-62.698 162.735-109.708 47.011-47.021 83.922-101.768 109.71-162.737 26.697-63.138 40.246-130.185 40.246-199.299z"  horiz-adv-x="1024" />

    
    <glyph glyph-name="pic" unicode="&#58632;" d="M475.224 320.207l-35.188-4.072L667.59 171.62l16.28-10.339 15.526 11.474 312.889 231.226 11.714 8.657V687.295C1024 767.195 960.311 832 881.772 832H0V80.57C0 0.74 63.696-64 142.228-64H1024V225.033c0 15.962-12.735 28.902-28.444 28.902-15.71 0-28.445-12.94-28.445-28.903v-260.129l28.445 28.903H142.228c-47.11 0-85.34 38.855-85.34 86.764V803.097l-28.444-28.903h853.328c47.103 0 85.34-38.908 85.34-86.898v-259.941l11.713 23.375-312.889-231.226 31.806 1.135-227.555 144.516-19.189 12.186-16-16.258-227.556-231.226c-11.108-11.287-11.108-29.588 0-40.875a28.126 28.126 0 0 1 40.227 0l227.555 231.225zM341.333 557.42c0 55.87-44.572 101.16-99.555 101.16-54.983 0-99.556-45.29-99.556-101.16s44.573-101.162 99.556-101.162 99.555 45.292 99.555 101.161z m-142.222 0c0 23.944 19.103 43.354 42.667 43.354s42.666-19.41 42.666-43.355c0-23.944-19.102-43.354-42.666-43.354-23.564 0-42.667 19.41-42.667 43.354z"  horiz-adv-x="1024" />

    
    <glyph glyph-name="success" unicode="&#58633;" d="M517.226 867.894c-267.441 0-484.239-216.798-484.239-484.239s216.798-484.239 484.239-484.239c111.052 0 216.415 37.509 301.48 105.282 10.209 8.131 11.883 23.001 3.752 33.191-8.131 10.21-22.982 11.884-33.191 3.753-76.773-61.156-171.804-94.971-272.061-94.971C275.853-53.33 80.2 142.324 80.2 383.677S275.853 820.68 517.206 820.68c241.352 0 437.006-195.654 437.006-437.005 0-82.745-23.022-162.039-65.797-230.74-6.9-11.057-3.531-25.645 7.546-32.525 11.077-6.9 25.644-3.532 32.545 7.546 47.435 76.126 72.959 164.076 72.959 255.719 0 267.42-216.798 484.218-484.239 484.218zM788.56 520.755L505 228.093c-8.919-9.2-23.526-9.624-32.949-0.948l-171.602 157.74c-9.604 8.818-10.23 23.768-1.412 33.372 8.837 9.604 23.768 10.23 33.372 1.412L487.08 277.505l267.563 276.138c9.06 9.362 24.03 9.603 33.393 0.525 9.382-9.08 9.604-24.051 0.524-33.413z"  horiz-adv-x="1024" />

    
    <glyph glyph-name="warning" unicode="&#58634;" d="M598.273 737.82c-53.255 86.186-147.009 86.229-200.549-0.217L25.05 135.88c-53.986-87.165-10.725-167.206 91.386-169.19l774.621-0.005c102.828-2.002 145.87 61.276 92.203 148.124l-11.54 18.675-7.932 12.835c-7.276 11.776-22.675 15.394-34.393 8.082-11.718-7.312-15.319-22.786-8.042-34.562l7.932-12.836 11.54-18.674c31.46-50.911 16.617-72.733-49.285-71.452l-774.622 0.004c-62.88 1.227-82.962 38.383-49.46 92.476l372.674 601.721c33.981 54.865 81.98 54.843 115.898-0.045L857.09 239.16c7.445-11.669 22.893-15.063 34.505-7.582 11.612 7.482 14.99 23.006 7.545 34.675L598.273 737.82zM474.537 276.207c0-13.862 11.182-25.098 24.975-25.098 13.794 0 24.976 11.236 24.976 25.098v320c0 13.86-11.182 25.098-24.976 25.098-13.793 0-24.975-11.237-24.975-25.098v-320zM474.466 119.264c0.1-13.861 11.362-25.016 25.155-24.916 13.794 0.1 24.894 11.418 24.795 25.279l-0.461 63.997c-0.1 13.861-11.362 25.016-25.156 24.916-13.793-0.1-24.894-11.418-24.794-25.279l0.46-63.997z"  horiz-adv-x="1024" />

    
    <glyph glyph-name="wrong" unicode="&#58635;" d="M1024 384C1024 666.77 794.77 896 512 896S0 666.77 0 384s229.23-512 512-512c117.41 0 228.826 39.669 318.768 111.313 10.79 8.595 12.569 24.308 3.975 35.097-8.594 10.789-24.308 12.568-35.097 3.974C718.47-42.277 618.002-78.049 512-78.049 256.818-78.049 49.951 128.818 49.951 384S256.818 846.049 512 846.049 974.049 639.182 974.049 384c0-87.493-24.334-171.337-69.578-243.96-7.294-11.708-3.716-27.112 7.992-34.405 11.707-7.294 27.11-3.716 34.405 7.991C997.014 194.12 1024 287.102 1024 384zM331.839 232.425c-9.665-9.842-9.522-25.655 0.32-35.32 9.841-9.665 25.654-9.522 35.32 0.32l349.995 356.392c9.665 9.842 9.521 25.655-0.32 35.32-9.842 9.665-25.655 9.521-35.32-0.32L331.84 232.425zM681.835 197.425c9.664-9.842 25.477-9.985 35.319-0.32 9.841 9.665 9.985 25.478 0.32 35.32L367.478 588.817c-9.665 9.841-25.478 9.985-35.32 0.32-9.84-9.665-9.984-25.478-0.32-35.32l349.997-356.392z"  horiz-adv-x="1024" />

    
    <glyph glyph-name="arrow-up" unicode="&#58636;" d="M957.44 123.187L509.952 504.934 66.97 123.392 0 201.114 509.542 640 1024 201.216z"  horiz-adv-x="1024" />

    
    <glyph glyph-name="attachment" unicode="&#58637;" d="M472.153 776.771L92.64 378.249C-3.526 277.27-2.288 115.376 95.537 15.837l3.785-3.851c97.945-99.662 257.76-100.476 356.585-1.898l500.018 498.773c79.02 78.823 80.662 207.97 3.71 288.526l-18.29-17.472-18.29-17.473 4.222-4.42 18.29 17.472 18.29 17.472c-77.589 81.22-203.164 80.384-279.906-1.91l-474.024-508.33c-38.17-40.932-35.973-104.959 4.978-143.146l11.479-10.704c40.89-38.131 104.977-35.91 143.077 4.947l368.68 395.36c9.527 10.218 8.968 26.223-1.249 35.75-10.216 9.528-26.222 8.969-35.75-1.248l-368.679-395.36c-19.042-20.42-51.117-21.532-71.578-2.451l-11.48 10.704c-20.506 19.124-21.605 51.138-2.48 71.647l474.024 508.329c56.914 61.033 148.842 61.645 206.328 1.468 23.296-24.386 59.876 10.558 36.58 34.944l-4.223 4.42c-23.296 24.387-59.875-10.557-36.58-34.944 57.939-60.65 56.696-158.362-2.856-217.765L420.18 45.904c-78.938-78.741-206.517-78.091-284.778 1.54l-3.785 3.852c-78.695 80.074-79.694 210.843-2.344 292.066l379.515 398.522c9.633 10.116 9.242 26.127-0.874 35.76-10.116 9.634-26.127 9.243-35.76-0.873z"  horiz-adv-x="1024" />

    
    <glyph glyph-name="cart" unicode="&#58638;" d="M246.4-16a2.1 2.1 0 1 1 134.4 0 2.1 2.1 0 1 1-134.4 0zM716.8-16a2.1 2.1 0 1 1 134.4 0 2.1 2.1 0 1 1-134.4 0zM905.6 131.2H368c-28.8 0-57.6 25.6-64 54.4L208 752c-9.6 54.4-60.8 96-115.2 96H70.4c-12.8 0-25.6-12.8-25.6-25.6s12.8-25.6 25.6-25.6h22.4c28.8 0 57.6-25.6 64-54.4l96-566.4c9.6-54.4 60.8-96 115.2-96h537.6c12.8 0 25.6 12.8 25.6 25.6s-9.6 25.6-25.6 25.6zM880 716.8H307.2c-12.8 0-25.6-12.8-25.6-25.6s12.8-25.6 25.6-25.6H880c25.6 0 38.4-16 32-41.6l-70.4-281.6c-6.4-32-41.6-57.6-73.6-60.8l-396.8-28.8c-12.8 0-25.6-12.8-22.4-28.8 0-12.8 12.8-25.6 28.8-22.4l396.8 28.8c54.4 3.2 105.6 48 118.4 99.2l70.4 281.6c12.8 54.4-25.6 105.6-83.2 105.6z"  horiz-adv-x="1024" />

    
    <glyph glyph-name="build" unicode="&#58639;" d="M51.883 626.688s93.354 143.957 240.64 221.099c147.712 77.226 329.386 55.04 448.426-19.798C860.245 753.152 900.352 689.92 900.352 689.92l102.57 58.539s21.249 10.496 21.249-14.08v-367.36s0-32.768-24.832-20.992c-20.736 9.813-246.272 138.069-317.27 178.432-38.912 17.493-4.778 31.573-4.778 31.573l99.157 56.661s-56.576 70.827-139.179 108.374c-88.576 46.08-171.349 51.626-272.896 13.141-66.218-24.917-144.213-89.003-200.277-183.467L51.968 626.688z m920.32-485.461s-93.27-143.872-240.64-221.014c-147.456-77.226-329.216-55.04-448.256 19.798-119.382 74.837-159.488 138.154-159.488 138.154L21.163 19.627S0.085 9.13 0.085 33.536v367.53s0 32.683 24.832 21.078c20.736-9.813 246.187-138.07 317.27-178.603 38.912-17.322 4.693-31.573 4.693-31.573l-99.157-56.661s56.661-70.742 139.264-108.203c88.49-46.165 171.349-51.627 272.81-13.227 66.219 24.918 144.214 88.918 200.278 183.467l112.128-75.947v-0.17z"  horiz-adv-x="1024" />

    
    <glyph glyph-name="bad" unicode="&#58640;" d="M666.832 60.901c-26.855 69.1-53.76 142.783-80.915 220.626-6.545 18.767 7.383 38.38 27.259 38.38h272.372c48.933 0 88.592 39.66 88.592 88.596 0 28.13-13.147 54.01-35.147 70.679a28.872 28.872 0 0 0-8.581 35.532 88.137 88.137 0 0 1 8.704 38.361c0 32.568-17.685 61.995-45.65 77.524-16.61 9.224-19.936 31.698-6.709 45.337a61.174 61.174 0 0 1 17.335 42.8 61.46 61.46 0 0 1-31.829 53.876 28.872 28.872 0 0 0-14.894 26.247c0.02 20.187-15.375 35.578-34.377 35.578H377.744a97.476 97.476 0 0 1-3.765 0.127H85.558A25.023 25.023 0 0 1 60.53 809.549v-487.643a25.011 25.011 0 0 1 25.027-25.023h232.194a28.872 28.872 0 0 0 25.557-15.437c28.53-54.28 57.93-99.513 87.206-132.004 31.244-34.665 50.661-70.825 60.797-108.963 7.237-27.225 8.893-47.197 9.255-83.333 0.1-10.132 0.261-15.718 0.627-19.483 89.411-26.709 196.662 56.54 165.638 123.242z m52.778 23.444c55.647-122.071-113.306-248.682-246.972-197.94-16.962 8.192-24.561 20.823-27.64 36.726-1.671 8.65-1.999 15.598-2.176 33.441-0.312 31.61-1.655 47.767-7.314 69.074-7.803 29.357-22.828 57.333-47.89 85.142-30.042 33.338-59.122 76.92-87.159 128.354H85.558c-45.726 0-82.77 37.05-82.77 82.764V809.549c0 45.71 37.056 82.755 82.77 82.755h288.425c1.556 0 3.107-0.038 4.658-0.127h444.347c46.084 0 84.264-33.815 91.067-77.985a119.13 119.13 0 0 0 47.781-95.46 118.93 118.93 0 0 0-14.086-56.262 146.163 146.163 0 0 0 49.11-109.395c0-14.609-2.152-28.941-6.313-42.623a146.012 146.012 0 0 0 41.337-101.95c0-80.83-65.513-146.339-146.336-146.339h-231.62c22.25-62.814 44.248-122.506 65.682-177.818zM281.023 277.731V858.947a28.872 28.872 0 1 0 57.744 0v-581.216a28.872 28.872 0 1 0-57.744 0z"  horiz-adv-x="1035" />

    
    <glyph glyph-name="cart-add" unicode="&#58641;" d="M739.2 0a2 2 0 1 1 128 0 2 2 0 1 1-128 0zM281.6 0a2 2 0 1 1 128 0 2 2 0 1 1-128 0zM774.4 777.6C665.6 777.6 576 688 576 579.2c0-108.8 89.6-198.4 198.4-198.4 108.8 0 198.4 89.6 198.4 198.4C976 688 886.4 777.6 774.4 777.6z m0-345.6C691.2 432 624 499.2 624 579.2c0 83.2 67.2 147.2 150.4 147.2s150.4-67.2 150.4-147.2c0-83.2-67.2-147.2-150.4-147.2zM368 246.4c0-12.8 12.8-22.4 25.6-22.4l492.8 41.6c12.8 0 22.4 12.8 22.4 25.6s-12.8 22.4-25.6 22.4L390.4 272c-12.8 0-25.6-9.6-22.4-25.6zM844.8 604.8h-48v48c0 12.8-9.6 25.6-25.6 25.6s-25.6-9.6-25.6-25.6v-48h-48c-12.8 0-25.6-9.6-25.6-25.6 0-12.8 9.6-25.6 25.6-25.6h48v-48c0-12.8 9.6-25.6 25.6-25.6s25.6 9.6 25.6 25.6v48h48c12.8 0 25.6 9.6 25.6 25.6-3.2 12.8-12.8 25.6-25.6 25.6zM329.6 704h188.8c12.8 0 25.6 9.6 25.6 25.6 0 12.8-9.6 25.6-25.6 25.6H329.6c-12.8 0-25.6-9.6-25.6-25.6s12.8-25.6 25.6-25.6zM886.4 153.6H361.6c-28.8 0-57.6 25.6-64 51.2L204.8 752c-9.6 51.2-57.6 92.8-112 92.8H70.4c-12.8 0-25.6-9.6-25.6-25.6 0-12.8 9.6-25.6 25.6-25.6h22.4c28.8 0 57.6-22.4 64-51.2l92.8-547.2c9.6-51.2 57.6-92.8 112-92.8h524.8c12.8 0 25.6 9.6 25.6 25.6 0 12.8-12.8 25.6-25.6 25.6z"  horiz-adv-x="1024" />

    
    <glyph glyph-name="catalog" unicode="&#58642;" d="M309.5552 596.959232c-23.959552 0-43.38176-19.419136-43.38176-43.377664s19.422208-43.38176 43.38176-43.38176 43.38176 19.422208 43.38176 43.38176-19.421184 43.377664-43.38176 43.377664z m0-347.034624c-23.959552 0-43.38176-19.422208-43.38176-43.379712 0-23.958528 19.422208-43.379712 43.38176-43.379712s43.38176 19.421184 43.38176 43.379712c0 23.95648-19.421184 43.379712-43.38176 43.379712z m0 173.517824c-23.959552 0-43.38176-19.421184-43.38176-43.379712s19.422208-43.379712 43.38176-43.379712 43.38176 19.421184 43.38176 43.379712-19.421184 43.379712-43.38176 43.379712z m433.815552-173.517824H483.08224c-23.959552 0-43.38176-19.422208-43.38176-43.379712 0-23.958528 19.422208-43.379712 43.38176-43.379712h260.288512c23.959552 0 43.38176 19.421184 43.38176 43.379712 0 23.95648-19.422208 43.379712-43.38176 43.379712z m0 347.034624H483.08224c-23.959552 0-43.38176-19.419136-43.38176-43.377664s19.422208-43.38176 43.38176-43.38176h260.288512c23.959552 0 43.38176 19.422208 43.38176 43.38176s-19.422208 43.377664-43.38176 43.377664zM873.516032 857.238528H179.410944c-47.917056 0-86.762496-38.844416-86.762496-86.7584V-10.35264c0-47.913984 38.84544-86.7584 86.762496-86.7584h694.105088c47.917056 0 86.760448 38.844416 86.760448 86.7584V770.480128c0 47.913984-38.843392 86.7584-86.760448 86.7584z m0-824.211456c0-23.958528-19.42528-43.379712-43.383808-43.379712H222.792704c-23.959552 0-43.38176 19.421184-43.38176 43.379712V727.100416c0 23.95648 19.422208 43.379712 43.38176 43.379712h607.33952c23.959552 0 43.383808-19.424256 43.383808-43.379712v-694.073344zM743.370752 423.442432H483.08224c-23.959552 0-43.38176-19.421184-43.38176-43.379712s19.422208-43.379712 43.38176-43.379712h260.288512c23.959552 0 43.38176 19.421184 43.38176 43.379712s-19.422208 43.379712-43.38176 43.379712z"  horiz-adv-x="1024" />

    
    <glyph glyph-name="check-mark" unicode="&#58643;" d="M1023.83 421.345l-549.255-549.283h549.255V421.345zM783.16-83.732l-96.896 96.933 36.335 36.35 60.56-60.583L952.729 158.6l36.335-36.35L783.16-83.731z"  horiz-adv-x="1040" />

    
    <glyph glyph-name="confirm-full" unicode="&#58644;" d="M513.525 896C231.625 896 3.07 667.502 3.07 385.545s228.556-510.455 510.455-510.455 510.454 228.557 510.454 510.455C1023.979 667.444 795.423 896 513.525 896zM764.64 510.605C684.634 402.684 604.621 294.631 524.615 186.71c-16.693-22.561-55.584-38.817-83.12-19.751-57.578 39.756-115.09 79.503-172.601 119.2-26.301 18.193-40.126 47.23-21.81 75.581 15.202 23.616 56.704 38.075 83.187 19.816a158885.84 158885.84 0 0 0 127.233-87.923c67.358 90.913 134.66 181.83 202.082 272.677 43.488 58.701 148.92 3.489 105.053-55.705z"  horiz-adv-x="1024" />

    
    <glyph glyph-name="comment" unicode="&#58645;" d="M639.232 481.152H380.288a32.384 32.384 0 0 0 0 64.704h258.944a32.384 32.384 0 1 0 0-64.704z m-61.376-129.536H380.288a32.448 32.448 0 0 0 0 64.832h197.568a32.384 32.384 0 0 0 0-64.832z m387.456 97.152c0 214.208-203.328 388.544-453.312 388.544S58.752 662.976 58.752 448.768c0-117.888 63.808-228.672 174.976-304.192 14.784-10.112 34.88-6.208 44.992 8.64s6.208 34.944-8.576 44.992c-93.248 63.168-146.688 154.496-146.688 250.56 0 178.56 174.336 323.776 388.544 323.776 214.208 0 388.544-145.28 388.544-323.776S726.208 124.992 512 124.992c-1.984 0-3.712-0.768-5.632-1.152a32.128 32.128 0 0 1-36.224-20.416c-6.208-17.6-46.848-47.168-95.232-74.688 17.6 58.944 9.216 71.552 3.52 79.936A36.288 36.288 0 0 1 348.16 124.8a32.448 32.448 0 0 1-28.096-48.576c-3.264-18.368-17.408-61.568-33.472-100.992a32.384 32.384 0 0 1 43.2-41.856c36.928 16.512 149.376 70.016 189.824 127.104 246.528 3.648 445.696 176.256 445.696 388.288z m0 0"  horiz-adv-x="1024" />

    
    <glyph glyph-name="check" unicode="&#58646;" d="M841.092 364.54v-181.703q0-67.995-48.283-116.278t-116.278-48.283H201.133q-67.996 0-116.279 48.283T36.572 182.837V658.235q0 67.996 48.282 116.279t116.279 48.282H676.53q35.997 0 66.853-14.285 8.57-4 10.285-13.142 1.714-9.713-5.143-16.57l-27.998-27.998q-5.714-5.714-13.142-5.714-1.714 0-5.143 1.143-13.142 3.428-25.712 3.428H201.133q-37.712 0-64.568-26.855t-26.855-64.568v-475.398q0-37.712 26.855-64.567t64.568-26.855H676.53q37.712 0 64.567 26.855t26.855 64.567V327.971q0 7.428 5.143 12.57l36.569 36.57q5.714 5.713 13.142 5.713 3.428 0 6.857-1.714 11.428-4.57 11.428-16.57z m131.991 279.41L507.97 178.839q-13.713-13.714-32.57-13.714t-32.569 13.714L197.133 424.536q-13.714 13.713-13.714 32.57t13.714 32.569l62.853 62.853q13.713 13.713 32.57 13.713t32.569-13.713L475.4 402.252l369.69 369.69q13.714 13.714 32.57 13.714t32.569-13.714l62.853-62.853q13.714-13.713 13.714-32.57t-13.714-32.568z"  horiz-adv-x="1024" />

    
    <glyph glyph-name="copy" unicode="&#58647;" d="M874.6 658.2L660.8 874.7c-4.5 4.5-9.4 8.3-14.7 11.5-1.4 0.8-2.8 1.6-4.3 2.3-0.9 0.5-1.9 0.9-2.8 1.3-9 4-18.9 6.2-29 6.2H329c-39.8 0-73-32.2-73-72v-56h-55.5c-39.8 0-72.5-32.6-72.5-72.4v-752c0-39.8 32.7-71.6 72.5-71.6h495c39.8 0 71.5 31.8 71.5 71.6V0h57c39.8 0 71 32.2 71 72V607.5c0 19-7 37.2-20.4 50.7zM647 785.6L783.8 648H647V785.6zM695-56H200V696h56v-624c0-39.8 33.2-72 73-72h366v-56z m128 128H328V824h247v-176c0-39.8 33.2-72 73-72h175v-504zM640 476c0 19.9-16.1 36-36 36H420c-19.9 0-36-16.1-36-36s16.1-36 36-36h184c19.9 0 36 16.1 36 36z m128-128c0 19.9-16.1 36-36 36H420c-19.9 0-36-16.1-36-36s16.1-36 36-36h312c19.9 0 36 16.1 36 36z m-64-128c0 19.9-16.1 36-36 36H420c-19.9 0-36-16.1-36-36s16.1-36 36-36h248c19.9 0 36 16.1 36 36z"  horiz-adv-x="1024" />

    
    <glyph glyph-name="csac" unicode="&#58648;" d="M112 672h800c26.5 0 48 21.5 48 48s-21.5 48-48 48H112c-26.5 0-48-21.5-48-48s21.5-48 48-48z m0-336h480c26.5 0 48 21.5 48 48s-21.5 48-48 48H112c-26.5 0-48-21.5-48-48s21.5-48 48-48z m669.3 204.4c-1.5 1.3-3.3 2-5.3 2-4.4 0-8-3.6-8-8v-300.3c0-1.9 0.7-3.8 2-5.3 2.9-3.3 8-3.7 11.3-0.8l165.1 144c0.5 0.5 1.1 1 1.5 1.5 5.8 6.7 5.1 16.8-1.5 22.6L781.3 540.4zM912 96H112c-26.5 0-48-21.5-48-48s21.5-48 48-48h800c26.5 0 48 21.5 48 48s-21.5 48-48 48z"  horiz-adv-x="1024" />

    
    <glyph glyph-name="database" unicode="&#58649;" d="M512 292.978L56.889 554.667 512 816.356l455.111-261.69L512 292.979zM170.667 554.667L512 361.244l341.333 193.423L512 748.089 170.667 554.667zM910.222 440.889l-56.889-34.133L512 213.333 113.778 440.89l-56.89-34.133L512 145.066l455.111 261.69zM910.222 281.6l-56.889-34.133L512 54.044v-5.688L113.778 275.91l-56.89-28.444L512-14.223l455.111 261.69z"  horiz-adv-x="1024" />

    
    <glyph glyph-name="down" unicode="&#58650;" d="M553.984 40.96a47.68 47.68 0 0 0-32.768 14.336l-337.92 337.92c-18.432 18.432-18.432 48.128 0 66.56s48.128 18.432 65.536 0l305.152-305.152 305.152 305.152c18.432 18.432 48.128 18.432 66.56 0s18.432-48.128 0-66.56l-337.92-337.92a48.192 48.192 0 0 0-33.792-14.336z m0 0c-25.6 0-47.104 21.504-47.104 47.104V848.896C506.88 875.52 528.384 896 553.984 896s47.104-20.48 47.104-47.104v-760.832c0-25.6-20.48-47.104-47.104-47.104zM1061.888-128H47.104C21.504-128 0-107.52 0-80.896c0 25.6 21.504 47.104 47.104 47.104h1014.784c25.6 0 47.104-21.504 47.104-47.104 0-26.624-21.504-47.104-47.104-47.104z"  horiz-adv-x="1120" />

    
    <glyph glyph-name="download" unicode="&#58651;" d="M487.5 111.7c6.7-6.7 15.6-10.1 24.5-10.1s17.7 3.4 24.5 10.1l155.9 155.9c13.5 13.5 13.5 35.4 0 48.9-6.5 6.5-15.2 10.1-24.4 10.1s-17.9-3.6-24.4-10.1l-96.9-96.9V797.4c0 19.1-15.5 34.6-34.6 34.6s-34.6-15.5-34.6-34.6v-577.8l-96.9 96.9c-13.5 13.5-35.4 13.5-48.8 0-13.5-13.5-13.5-35.4-0.1-48.9l155.8-155.9zM924.4 255.6c-19.1 0-34.6-15.5-34.6-34.6v-195.4c0-11.3-9.2-20.6-20.6-20.6H152.7c-11.3 0-20.6 9.2-20.6 20.6V221.1c0 19.1-15.5 34.6-34.6 34.6S63 240.1 63 221.1v-222.9c0-34.3 27.9-62.1 62.1-62.1h771.8c34.3 0 62.1 27.9 62.1 62.1V221.1c0 19-15.5 34.5-34.6 34.5z"  horiz-adv-x="1024" />

    
    <glyph glyph-name="edit" unicode="&#58652;" d="M507.429 219.429l66.304 66.304-86.858 86.857-66.304-66.304v-32h54.858v-54.857h32z m251.428 411.428c-5.156 5.157-13.714 4.572-18.87-0.585l-200.01-200.01c-5.156-5.156-5.705-13.713-0.585-18.87s13.714-4.571 18.87 0.585l200.01 200.01c5.157 5.156 5.705 13.714 0.585 18.87z m45.714-339.42v-108.58c0-90.843-73.728-164.571-164.571-164.571H164.571A164.645 164.645 0 0 0 0 182.857V658.286C0 749.129 73.728 822.857 164.571 822.857H640c22.857 0 45.714-4.571 66.853-14.3 5.156-2.303 9.142-7.423 10.276-13.128a17.957 17.957 0 0 0-5.156-16.567l-28.014-28.014a17.225 17.225 0 0 0-18.286-4.571 98.633 98.633 0 0 1-25.71 3.437H164.535a91.685 91.685 0 0 1-91.429-91.428v-475.429c0-50.286 41.143-91.428 91.429-91.428h475.428c50.286 0 91.429 41.142 91.429 91.428v72.01c0 4.57 1.719 9.142 5.157 12.58l36.571 36.571c5.705 5.705 13.13 6.84 20.005 3.987s11.446-9.143 11.446-16.567z m-54.857 421.706L914.286 548.57l-384-384H365.714V329.143z m253.733-75.447l-52.553-52.553-164.572 164.571 52.553 52.553a55.552 55.552 0 0 0 77.715 0l86.857-86.857a55.552 55.552 0 0 0 0-77.714z"  horiz-adv-x="1024" />

    
    <glyph glyph-name="date" unicode="&#58653;" d="M805.499-85.499l-602.317 0.763c-86.594 8.192-154.568 81.306-154.568 170.015V604.268c0 94.156 76.6 170.757 170.778 170.757h586.102c94.157 0 170.731-76.6 170.731-170.757v-518.969c0.005-94.172-76.595-170.798-170.726-170.798zM219.366 705.428c-55.797 0-101.202-45.383-101.202-101.181v-518.968c0-55.798 45.405-101.207 101.202-101.207H805.5c55.777 0 101.16 45.409 101.16 101.207V604.268c0 55.797-45.383 101.186-101.16 101.186H219.366v-0.026z m479.478-99.947c-25.605 0-46.382 20.777-46.382 46.382V810.532c0 25.6 20.777 46.382 46.382 46.382 25.6 0 46.382-20.782 46.382-46.382v-158.654c0-25.625-20.756-46.397-46.382-46.397z m-383.186 0c-25.605 0-46.382 20.777-46.382 46.382V810.532c0 25.6 20.777 46.382 46.382 46.382 25.6 0 46.382-20.782 46.382-46.382v-158.654c0-25.625-20.751-46.397-46.382-46.397z m219.228-504.269h-44.272c-25.6 0-46.382 20.777-46.382 46.382 0 25.6 20.782 46.382 46.382 46.382h44.272c25.6 0 46.382-20.782 46.382-46.382 0-25.605-20.782-46.382-46.382-46.382z m395.91 342.18h-809.55c-25.604 0-46.381 20.782-46.381 46.382 0 25.605 20.777 46.382 46.382 46.382H930.82c25.6 0 46.382-20.777 46.382-46.382 0-25.6-20.777-46.382-46.407-46.382z m-602.87-196.424h-44.273c-25.6 0-46.382 20.782-46.382 46.382 0 25.606 20.782 46.382 46.382 46.382h44.273c25.6 0 46.382-20.776 46.382-46.382 0-25.605-20.782-46.382-46.382-46.382z m206.96 0h-44.272c-25.6 0-46.382 20.782-46.382 46.382 0 25.606 20.782 46.382 46.382 46.382h44.272c25.6 0 46.382-20.776 46.382-46.382s-20.782-46.382-46.382-46.382z m206.393 0H697.01c-25.605 0-46.382 20.782-46.382 46.382 0 25.606 20.777 46.382 46.382 46.382h44.268c25.605 0 46.382-20.776 46.382-46.382 0-25.605-20.752-46.382-46.382-46.382zM327.926 101.212h-44.273c-25.6 0-46.382 20.777-46.382 46.382 0 25.6 20.782 46.382 46.382 46.382h44.273c25.6 0 46.382-20.782 46.382-46.382 0-25.605-20.782-46.382-46.382-46.382z m413.353 0H697.01c-25.605 0-46.382 20.777-46.382 46.382 0 25.6 20.777 46.382 46.382 46.382h44.268c25.605 0 46.382-20.782 46.382-46.382 0-25.605-20.752-46.382-46.382-46.382z"  horiz-adv-x="1024" />

    
    <glyph glyph-name="feedback" unicode="&#58654;" d="M883.2 812.8H140.8c-51.2 0-92.8-41.6-92.8-89.6v-582.4c0-48 41.6-89.6 92.8-89.6h256s6.4-6.4 16-19.2c3.2-3.2 6.4-6.4 9.6-12.8 0 0 6.4-9.6 9.6-12.8 28.8-44.8 51.2-67.2 86.4-67.2s60.8 22.4 89.6 67.2c22.4 35.2 28.8 44.8 28.8 44.8h249.6c51.2 0 92.8 41.6 92.8 89.6V723.2c-3.2 51.2-44.8 89.6-96 89.6z m48-672c0-25.6-19.2-44.8-44.8-44.8H633.6c-6.4 0-9.6 0-16-3.2-9.6-6.4-19.2-12.8-28.8-28.8-3.2-6.4-22.4-35.2-22.4-35.2-19.2-32-35.2-44.8-48-44.8-12.8 0-25.6 12.8-48 44.8-3.2 3.2-6.4 12.8-9.6 12.8-3.2 6.4-6.4 9.6-9.6 12.8-19.2 25.6-32 38.4-54.4 38.4h-256c-25.6 0-44.8 19.2-44.8 44.8V720c0 25.6 22.4 44.8 48 44.8h742.4c25.6 0 48-19.2 48-44.8v-579.2zM220.8 412.8a1.6 1.6 0 1 1 102.4 0 1.6 1.6 0 1 1-102.4 0zM460.8 412.8a1.6 1.6 0 1 1 102.4 0 1.6 1.6 0 1 1-102.4 0zM697.6 412.8a1.6 1.6 0 1 1 102.4 0 1.6 1.6 0 1 1-102.4 0z"  horiz-adv-x="1024" />

    
    <glyph glyph-name="eye" unicode="&#58655;" d="M1439.175 393.186c-115.521 233.355-352.825 384.097-616.997 384.097-259.691 0.005-493.642-145.659-611.326-372.903-2.359-4.465-3.744-9.761-3.744-15.379a33.321 33.321 0 0 1 3.557-15.029C326.098 140.81 563.402-9.935 827.57-9.935c259.697 0 493.646 145.659 611.331 372.907 2.359 4.465 3.744 9.761 3.744 15.379a33.321 33.321 0 0 1-3.557 15.029z m-611.6-336.464c-232.958 0-442.764 129.694-549.788 331.936C386.53 585.419 593.264 710.63 822.18 710.63c232.958 0 442.764-129.699 549.788-331.94-108.743-196.761-315.483-321.972-544.393-321.972z m125.384 196.905c33.654 34.619 52.858 81.01 52.858 130.373 0 103.084-83.211 186.644-185.849 186.644-102.641 0-185.849-83.561-185.849-186.644s83.206-186.644 185.849-186.644c14.662 0 26.548 11.937 26.548 26.663 0 14.722-11.885 26.661-26.548 26.661-73.319 0-132.749 59.689-132.749 133.319s59.431 133.319 132.749 133.319c73.314 0 132.745-59.689 132.745-133.319 0-35.301-13.68-68.366-37.751-93.123a26.647 26.647 0 0 1-7.55-18.623 26.662 26.662 0 0 1 7.998-19.075 26.39 26.39 0 0 1 18.553-7.588c7.449 0 14.181 3.078 18.991 8.031z"  horiz-adv-x="1603" />

    
    <glyph glyph-name="exl" unicode="&#58656;" d="M905.179865 717.150272c-6.609955 6.158958-13.992905 13.019912-21.969851 20.407862-22.792846 21.112857-45.78069 42.227714-67.517542 61.94758-2.454983 2.225985-2.454983 2.225985-4.911967 4.44997-29.001803 26.256822-53.194639 47.660677-71.071518 62.743575-10.459929 8.82494-18.692873 15.432895-24.742833 19.791865-4.015973 2.89298-7.279951 4.976966-10.499928 6.502956-4.052973 1.921987-7.832947 3.092979-13.163911 2.99298C677.041411 895.720062 665.595489 884.22414 665.595489 869.810237V639.546798H895.993928l-25.599827 25.584827v-767.546798L895.993928-76.830347H230.379439c-42.476712 0-76.78048 34.205768-76.78048 76.622481V869.810237L127.999133 844.225411h460.796877c14.137904 0 25.599827 11.454922 25.599826 25.584826S602.933914 895.395064 588.79601 895.395064H102.399306v-895.60293C102.399306-70.910387 159.651918-128 230.379439-128H921.593754V690.716451H691.195316l25.599826-25.584826V869.810237c0-13.629908-11.051925-24.730832-24.531834-24.98383-4.561969-0.085999-7.197951 0.730995-9.739934 1.935987-0.268998 0.126999 0.816994-0.565996 2.500983-1.779988 4.749968-3.421977 12.116918-9.333937 21.656854-17.382882 17.322883-14.614901 41.129721-35.678758 69.727527-61.567583a6296.03733 6296.03733 0 0 0 4.870967-4.41497c21.591854-19.586867 44.453699-40.586725 67.128545-61.589583a9988.951301 9988.951301 0 0 0 21.855852-20.302862c3.939973-3.670975 6.749954-6.295957 8.229944-7.680948 10.31893-9.659935 26.51882-9.129938 36.183755 1.182992s9.134938 26.50382-1.183992 36.162755a5497.69274 5497.69274 0 0 1-8.313944 7.759947zM102.399306 434.866185H0v-434.943052h1023.99306V434.867185H153.598959v0.597996h-51.199653v-0.597996z m246.998326-212.069562H229.798443v-89.599393h139.799052v-40.399726H179.198786V383.99653h188.998719v-40.799723H229.798443v-80.399456h119.599189v-39.999728z m161.598905 55.99962L572.196122 383.99653h58.399604l-87.999403-144.399021 89.99939-146.799005h-58.9996L510.996537 199.59778l-62.799575-106.799276h-58.799601l90.199389 146.799005L391.397347 383.99653h58.399605L510.996537 278.797243z m209.598579-145.599013h132.199104v-40.399726H669.995459V383.99653h50.599657v-250.7983z"  horiz-adv-x="1024" />

    
    <glyph glyph-name="deliver-full" unicode="&#58657;" d="M401.237 179.2h323.618a102.4 102.4 0 1 1 204.8 0h34.782a34.133 34.133 0 0 1 34.134 34.133V428.237a68.267 68.267 0 0 1-15.053 42.769l-101.632 126.43a68.3 68.3 0 0 1-53.231 25.497H691.37a34.133 34.133 0 0 1-34.134-34.133v-341.333h-68.266V725.333a68.267 68.267 0 0 1-68.267 68.267H76.971a68.267 68.267 0 0 1-68.267-68.267v-477.866A68.267 68.267 0 0 1 76.971 179.2h119.466a102.4 102.4 0 1 1 204.8 0z m426.667-34.133a34.133 34.133 0 1 0 0 68.266 34.133 34.133 0 0 0 0-68.266z m-78.78 375.466a17.067 17.067 0 0 0 17.067 17.067h55.5a17.067 17.067 0 0 0 13.108-6.144l67.908-81.527a17.047 17.047 0 0 0 3.96-10.923v-20.873a17.067 17.067 0 0 0-17.067-17.066H766.19a17.067 17.067 0 0 0-17.066 17.066v102.4zM298.837 145.067a34.133 34.133 0 1 0 0 68.266 34.133 34.133 0 0 0 0-68.266zM981.163 76.8h-921.6c-18.774 0-34.134-15.36-34.134-34.133v-34.134c0-18.773 15.36-34.133 34.134-34.133h921.6c18.773 0 34.133 15.36 34.133 34.133v34.134c0 18.773-15.36 34.133-34.133 34.133z"  horiz-adv-x="1024" />

    
    <glyph glyph-name="file-empty" unicode="&#58658;" d="M917.792 666.912c-22.208 30.304-53.184 65.696-87.168 99.712s-69.408 64.96-99.712 87.168C679.328 891.616 654.336 896 640 896H144C99.904 896 64 860.128 64 816v-864c0-44.096 35.904-80 80-80h736c44.096 0 80 35.904 80 80V576c0 14.336-4.384 39.36-42.208 90.912z m-132.416 54.464c30.688-30.688 54.784-58.4 72.576-81.376H704V793.952c22.976-17.792 50.688-41.888 81.376-72.576zM896-48c0-8.672-7.328-16-16-16H144c-8.672 0-16 7.328-16 16V816c0 8.672 7.328 16 16 16h496v-224c0-17.664 14.336-32 32-32h224v-624z"  horiz-adv-x="1024" />

    
    <glyph glyph-name="folder" unicode="&#58659;" d="M0 32a48 48 0 0 1 48-48h928a48 48 0 0 1 48 48V544H0v-512z m976 656H383.712L288 784H48a48 48 0 0 1-48-48v-144h1024v48a48 48 0 0 1-48 48z"  horiz-adv-x="1024" />

    
    <glyph glyph-name="folder-empty" unicode="&#58660;" d="M1144.47 805.647H478.42L420.442 896H90.352C40.449 896 0 855.522 0 805.647v-843.294C0-87.552 40.448-128 90.353-128H1144.47c49.905 0 90.353 40.478 90.353 90.353V715.264c0.03 49.905-40.448 90.383-90.353 90.383z m30.118-843.294c0-16.655-13.492-30.148-30.117-30.148H90.353c-16.625 0-30.118 13.493-30.118 30.148V564.706c0 16.655 13.493 30.118 30.118 30.118H1144.47c16.625 0 30.117-13.463 30.117-30.118v-602.353z m0 692.676H60.235V805.617c0 16.625 13.493 30.118 30.118 30.118h300.695l60.054-90.353h693.369c16.625 0 30.117-13.493 30.117-30.118v-60.235z"  horiz-adv-x="1235" />

    
    <glyph glyph-name="home" unicode="&#58661;" d="M299.036-25.12c-4.292 1.73-8.459 3.923-12.895 5.12-49.662 13.401-83.788 55.466-84.246 107.098-0.77 86.972-0.365 173.954-0.301 260.932 0.015 20.933 10.585 33.552 27.086 33.264 16.292-0.286 27.495-13.425 27.544-33.793 0.2-81.542 0.019-163.085 0.117-244.627 0.062-51.477 20.272-71.747 71.242-71.755 122.992-0.018 245.985-0.028 368.978 0.005 48.095 0.014 69.084 21.031 69.176 69.718 0.153 80.184-0.05 160.367 0.19 240.55 0.023 7.971-0.769 18.896 3.788 23.25 7.874 7.525 19.83 15.441 29.74 15.036 13.504-0.553 21.272-12.201 21.193-27.582-0.302-59.116-0.094-118.235-0.088-177.353 0.003-27.182 0.228-54.365-0.082-81.542-0.667-58.37-32.27-98.746-88.546-113.848-3.132-0.84-5.922-2.953-8.871-4.474H299.036zM505.38 747.63c-4.595-6.789-8.229-14.542-13.928-20.223C366.85 603.175 242.026 479.162 117.215 355.139c-17.082-16.975-24.225-17.426-39.053-2.926-15.048 14.714-15.103 22.083-0.262 37.475 1.414 1.467 2.89 2.875 4.334 4.311 133.494 132.635 266.98 265.278 400.488 397.897 20.704 20.566 36.005 20.516 56.842-0.184a1660453.909 1660453.909 0 0 0 401.9-399.375c17.952-17.847 17.91-24.513 2.377-40.417-12.72-13.024-24.122-12.627-36.4 0.421-11.169 11.868-22.994 23.118-34.557 34.612-114.672 113.987-229.401 227.918-343.87 342.11-5.196 5.184-8.058 12.71-12.008 19.145l-11.625-0.578z"  horiz-adv-x="1024" />

    
    <glyph glyph-name="integral" unicode="&#58662;" d="M942 704.1C939.8 767.1 748.1 818 512 818S84.2 767.1 82 704.1V65c0-63.5 192.5-115 430-115s430 51.5 430 115V704.1z m-56.7-393.8c-4.6-3.3-11.6-7.4-21.9-12.2-21.3-9.8-50.5-19.1-84.4-26.8-74-16.8-168.8-26-267-26s-193 9.2-267 26c-33.9 7.7-63.1 16.9-84.4 26.8-10.3 4.8-17.3 8.9-21.9 12.2 0.1 0.1 0.2 0.1 0.3 0.2h-7v123c72.2-36.4 215.3-61.1 380-61.1s307.8 24.8 380 61.1v-122.9h-7l0.3-0.3z m0 177c-4.6-3.3-11.6-7.4-21.9-12.2-21.3-9.8-50.5-19.1-84.4-26.8-74-16.8-168.8-26-267-26s-193 9.2-267 26c-33.9 7.7-63.1 16.9-84.4 26.8-10.3 4.8-17.3 8.9-21.9 12.2 0.1 0.1 0.2 0.1 0.3 0.2h-7V649.1c72.2-36.4 215.3-61.1 380-61.1s307.8 24.8 380 61.1v-161.6h-7c0.1 0 0.2-0.1 0.3-0.2zM160.7 715.2C182 725 211.2 734.3 245 742c74 16.8 168.8 26 267 26s193-9.2 267-26c33.9-7.7 63.1-16.9 84.4-26.8 10.3-4.8 17.3-8.9 21.9-12.2-4.6-3.3-11.6-7.4-21.9-12.2C842 681 812.8 671.7 779 664c-74-16.8-168.8-26-267-26s-193 9.2-267 26c-33.9 7.7-63.1 16.9-84.4 26.8-10.3 4.8-17.3 8.9-21.9 12.2 4.7 3.3 11.7 7.4 22 12.2zM885.3 65c-4.6-3.3-11.6-7.4-21.9-12.2C842 43 812.8 33.7 779 26c-74-16.8-168.8-26-267-26s-193 9.2-267 26c-33.9 7.7-63.1 16.9-84.4 26.8-10.3 4.8-17.3 8.9-21.9 12.2 0.1 0.1 0.2 0.1 0.3 0.2h-7V256.5c72.2-36.4 215.3-61.1 380-61.1s307.8 24.8 380 61.1v-191.3h-7c0.1-0.1 0.2-0.1 0.3-0.2z"  horiz-adv-x="1024" />

    
    <glyph glyph-name="hot" unicode="&#58663;" d="M890.05557 352.206373c-44.169482 106.755749-49.50442 196.2927-32.663618 266.22388 1.74898 7.259915 3.595958 13.549841 5.462936 18.997777 0.904989 2.639969 3.047964 8.234903 3.304962 9.107893l14.725827 49.914415-47.826439-20.516759c-0.955989-0.409995-2.444971-1.035988-5.635934-2.379972a316.056296 316.056296 0 0 1-7.557912-3.305961c-6.577923-2.986965-12.81985-6.153928-19.170775-9.831885-16.607805-9.616887-32.211623-21.755745-46.834451-37.379562-26.232693-28.024672-47.335445-65.266235-62.080273-113.318672-16.739804-54.555361-20.265763-98.251849-18.77678-161.771104 0.472994-20.204763 0.458995-25.741698-0.164998-29.615653 0.939989 5.831932 11.615864 15.35382 23.264728 10.871872-3.047964 1.171986-10.409878 9.816885-19.790769 32.171623-15.762815 37.56056-29.479655 98.800842-39.496537 187.979797-11.370867 101.237814-6.712921 185.375828 7.829909 251.986047 3.029964 13.881837 6.252927 25.742698 9.439889 35.565584 1.827979 5.632934 3.167963 9.189892 3.792955 10.649875L678.643047 896l-50.400409-15.421819c-10.833873-3.314961-28.297668-11.05587-50.138413-24.73271-35.556583-22.266739-70.904169-53.459374-103.703784-95.006887-26.802686-33.953602-50.788405-73.535138-71.280165-119.133604-24.210716-53.872369-40.11553-98.901841-49.960415-138.462377-3.883954-15.604817-6.724921-29.913649-8.963895-44.312481a624.352683 624.352683 0 0 1-2.389972-17.012801c-0.300996-2.357972-1.446983-11.581864-1.729979-13.765838-2.477971-19.112776-4.22595-23.792721-10.838873-29.832651 6.84692 6.253927 13.997836 5.784932 17.372796 3.773956-1.755979 1.045988-5.009941 4.406948-8.615899 9.799885-10.960872 16.391808-20.011765 42.995496-24.300715 77.452092-2.439971 19.60177-3.486959 49.745417-3.320961 87.203979 0.109999 24.876708 0.742991 51.576396 1.72998 78.43208 0.380996 10.414878 0.790991 20.126764 1.199985 28.870662 0.244997 5.229939 0.434995 8.963895 0.541994 10.933872l3.712957 68.395198-46.193459-50.574407c-0.89299-0.976989-2.507971-2.766968-4.741944-5.277938-3.690957-4.146951-7.794909-8.831897-12.210857-13.964836-12.619852-14.666828-25.243704-30.019648-37.066566-45.356469a755.801143 755.801143 0 0 1-15.889814-21.33975c-25.433702-35.516584-44.833475-71.260165-63.327258-114.507658-47.280446-110.558704-61.145283-212.50351-38.860544-324.016203 27.545677-137.839385 89.289954-225.777354 179.565895-272.821803 65.360234-34.061601 130.005476-43.309492 229.107316-43.309492 17.772792 0 50.036414 2.432971 82.916028 7.537912 50.294411 7.808908 96.638868 20.672758 135.204415 39.870532 12.092858 6.019929 17.015801 20.701757 10.995872 32.794616-6.019929 12.091858-20.701757 17.015801-32.793616 10.995871-33.409608-16.629805-75.171119-28.222669-120.911583-35.324586-30.367644-4.714945-60.123295-6.957918-75.410116-6.957918-91.777924 0-150.005242 8.329902-206.50258 37.771557-76.605102 39.921532-129.456483 115.19365-154.204193 239.029199-20.232763 101.243814-7.71491 193.281735 35.869579 295.196541 17.182799 40.180529 34.919591 72.862146 58.121319 105.261766a707.242712 707.242712 0 0 0 14.859826 19.953766c11.236868 14.575829 23.319727 29.270657 35.406585 43.319493 7.242915 8.417901 12.849849 14.718828 15.989813 18.155787l-42.481502 17.820791c-0.112999-2.087976-0.308996-5.94093-0.559994-11.297868-0.416995-8.901896-0.83299-18.77778-1.221986-29.363656-1.003988-27.34268-1.647981-54.548361-1.760979-80.009062-0.174998-39.403538 0.930989-71.268165 3.694957-93.465905 10.909872-87.626973 57.477326-157.270157 97.075862-121.098581 17.115799 15.633817 22.529736 30.132647 26.357691 59.660301 9.34889 72.117155 18.74878 109.888712 59.152307 199.790659 18.849779 41.944508 40.746523 78.080085 65.057238 108.875724 29.239657 37.038566 60.360293 64.501244 91.27193 83.859017 10.628875 6.655922 20.403761 11.813862 29.05666 15.649817 4.897943 2.169975 8.133905 3.367961 9.430889 3.764956L612.918817 866.826342c-4.26095-9.941883-10.23288-28.346668-16.063811-55.052355-15.669816-71.769159-20.623758-161.27211-8.649899-267.879861 19.089776-169.946008 50.612407-245.061128 90.329941-260.344949 22.764733-8.759897 39.194541 5.893931 42.595501 26.998684 1.342984 8.329902 1.355984 13.721839 0.774991 38.543548-1.374984 58.706312 1.782979 97.865853 16.637805 146.277286 12.605852 41.079519 29.997648 71.771159 51.029402 94.240896 19.65477 20.997754 32.149623 28.233669 62.771265 41.369515l-9.642887 22.477736-23.457726 6.919919c2.988965 10.131881-5.796932-15.499818-9.407889-30.493642-19.190775-79.690066-13.227845-179.764893 35.019589-296.378527 38.246552-92.440917 29.728652-207.430569-20.855755-272.096812-8.322902-10.639875-6.443924-26.011695 4.194951-34.334597 10.639875-8.321902 26.011695-6.443924 34.333597 4.195951 62.229271 79.554068 72.126155 213.142502 27.527678 320.936239z"  horiz-adv-x="1024" />

    
    <glyph glyph-name="lights" unicode="&#58664;" d="M679.665-66.873c-4.252-0.129-12.066-0.354-22.73-0.644-17.78-0.485-36.984-0.969-56.898-1.42-25.597-0.581-50.478-1.065-73.928-1.42-43.066-0.65-78.926-0.832-105.085-0.436-14.58 0.22-25.874 0.62-33.4 1.188-3.4 0.257-5.822 0.538-6.896 0.75 0.466-0.092 1.162-0.285 2.53-0.885 7.477-3.28 13.75-9.067 13.75-21.577v93.213 77.425 41.321c0 7.057-3.048 13.77-8.362 18.414-1.55 1.355-4.602 4.096-8.941 8.11-7.316 6.77-15.49 14.59-24.304 23.35-25.21 25.052-50.423 52.523-73.902 81.478-43.472 53.613-75.805 105.943-92.393 153.953-8.059 23.326-12.195 45.142-12.195 65.207 0 195.842 158.76 354.602 354.601 354.602s354.602-158.76 354.602-354.602c0-18.009-3.648-37.389-10.798-57.985-17.368-50.036-54.372-104.895-105.158-161.027-26.096-28.843-54.126-56.145-82.154-80.994-9.803-8.692-18.894-16.446-27.032-23.152-4.83-3.981-8.232-6.699-9.963-8.045a24.455 24.455 0 0 1-9.448-19.309v-114.138l24.455 24.455H384.78c-13.506 0-24.455-10.949-24.455-24.455 0-13.506 10.95-24.455 24.455-24.455h281.236c13.507 0 24.456 10.949 24.456 24.455V120.642l-9.448-19.309c2.09 1.625 5.853 4.632 11.053 8.918 8.58 7.07 18.116 15.204 28.374 24.298 29.289 25.967 58.576 54.494 85.976 84.778 54.801 60.57 95.182 120.435 115.095 177.803 8.85 25.495 13.502 50.21 13.502 74.024 0 222.854-180.658 403.513-403.512 403.513C308.66 874.667 128 694.008 128 471.154c0-25.888 5.14-52.997 14.877-81.179 18.752-54.275 53.88-111.13 100.632-168.786 24.668-30.422 51.04-59.155 77.416-85.366 9.24-9.182 17.831-17.404 25.561-24.556 4.689-4.338 8.084-7.387 9.974-9.038l-8.362 18.413v-211.959c0-13.088 6.864-19.421 15.515-23.215 2.524-1.107 4.94-1.777 7.68-2.315 3.36-0.661 7.476-1.138 12.644-1.53 8.71-0.658 20.865-1.087 36.348-1.32 26.754-0.406 63.046-0.223 106.564 0.436 23.583 0.356 48.585 0.842 74.297 1.426 19.992 0.453 39.27 0.94 57.12 1.425 10.715 0.292 18.579 0.519 22.878 0.649 13.5 0.408 24.113 11.683 23.705 25.183-0.409 13.5-11.684 24.113-25.184 23.705zM379.716 343.813l122.276-122.276c9.197-9.197 23.984-9.586 33.652-0.885L657.921 330.7c10.039 9.035 10.853 24.498 1.817 34.537-9.035 10.039-24.498 10.853-34.537 1.818l-122.276-110.05 33.652-0.884-122.276 122.276c-9.55 9.55-25.035 9.55-34.585 0s-9.55-25.034 0-34.585zM494.83 226.602v-207.87h48.91v207.87h-48.91z"  horiz-adv-x="1024" />

    
    <glyph glyph-name="like" unicode="&#58665;" d="M512-32c-28.928 0-57.92 12.672-86.624 41.376L106.272 332C68.064 379.648 32 424.672 32 512c0 141.152 114.848 256 256 256 53.088 0 104-16.096 147.296-46.592 14.432-10.176 17.92-30.144 7.712-44.608-10.176-14.432-30.08-17.92-44.608-7.712C366.016 691.936 327.808 704 288 704c-105.888 0-192-86.112-192-192 0-61.408 20.288-90.112 59.168-138.688l315.584-318.816C486.72 38.528 499.616 32.192 512 32c12.704-0.192 24.928 6.176 41.376 22.624l316.672 319.904C896.064 402.72 928 450.304 928 512c0 105.888-86.112 192-192 192-48.064 0-94.08-17.856-129.536-50.272l-134.08-134.112c-12.512-12.512-32.736-12.512-45.248 0s-12.512 32.736 0 45.248L562.24 700c48.32 44.192 109.664 68 173.76 68 141.152 0 256-114.848 256-256 0-82.368-41.152-144.288-75.68-181.696l-317.568-320.8C569.952-19.328 540.96-32 512-32z"  horiz-adv-x="1024" />

    
    <glyph glyph-name="link" unicode="&#58666;" d="M481.11053 270.753611a34.037967 34.037967 0 0 0-24.129976 9.99999l-70.651931 70.651931c-60.649941 60.684941-60.649941 159.391844 0 220.042785L665.48635 850.572044C694.736322 879.856016 733.816283 896 775.456243 896c41.674959 0 80.719921-16.143984 110.039892-45.427956l93.074909-93.041909c60.649941-60.649941 60.649941-159.357844 0-220.042785L832.763187 391.680492c-13.345987-13.344987-34.915966-13.344987-48.261953 0s-13.344987 34.916966 0 48.261953L930.309091 585.749303c34.028967 34.061967 34.028967 89.456913 0 123.519879L837.234182 802.310091c-32.765968 32.765968-90.651911 32.799968-123.485879 0L434.589576 523.186364c-34.028967-34.061967-34.028967-89.456913 0-123.519879l70.650931-70.650931c13.344987-13.344987 13.344987-34.915966 0-48.260953-6.689993-6.689993-15.392985-9.99999-24.129977-9.99999zM248.507757-127.999c-39.864961 0-79.695922 15.153985-110.037892 45.496956l-93.041909 93.040909C16.177984 39.857836 0 78.902798 0 120.576757s16.177984 80.719921 45.462956 110.038893L191.269813 376.423507c13.345987 13.344987 34.916966 13.344987 48.261953 0s13.344987-34.915966 0-48.260952L93.723908 182.320697c-16.382984-16.416984-25.461975-38.329963-25.461975-61.74394s9.078991-45.359956 25.461975-61.776939l93.04091-93.04091c34.062967-34.028967 89.457913-34.062967 123.519879 0L589.409424 244.882636c34.028967 34.062967 34.028967 89.456913 0 123.519879l-70.650931 70.685931c-13.344987 13.344987-13.344987 34.949966 0 48.259953 13.344987 13.345987 34.915966 13.345987 48.260953 0l70.651931-70.684931c60.649941-60.649941 60.649941-159.356844 0-220.042785L358.54665-82.502044c-30.34297-30.34297-70.207931-45.462956-110.038893-45.496956z"  horiz-adv-x="1024" />

    
    <glyph glyph-name="good" unicode="&#58667;" d="M353.855 439.759h-69.033V495.43h42.31l96.869 121.116v101.57c0 61.41 49.934 111.344 111.343 111.344 61.408 0 111.343-49.935 111.343-111.343h-55.672c0 30.703-24.956 55.672-55.672 55.672-30.704 0-55.672-24.97-55.672-55.672V597L353.855 439.76z m482.463-501.045l-308.64 1.09-191.084 54.582h-51.771v55.672l63.323-1.088 191.113-54.584h253.51l98.08 394.987-299.833 54.096V718.117h55.672v-228.109l312.553-56.406-122.923-494.888z m-607.167 55.672H62.136V495.431h167.015v-501.045z m-111.344 55.672h55.672v389.7h-55.672v-389.7z"  horiz-adv-x="1024" />

    
    <glyph glyph-name="list-fill" unicode="&#58668;" d="M431.55 797.979H176.215c-30.555 0-55.327-24.703-55.327-55.169v-254.606c0-30.469 24.772-55.169 55.327-55.169H431.55c30.554 0 55.327 24.7 55.327 55.169V742.81c0 30.466-24.773 55.169-55.327 55.169z m0 0zM431.55 382.773H176.215c-30.555 0-55.327-24.704-55.327-55.169v-254.607c0-30.474 24.772-55.169 55.327-55.169H431.55c30.554 0 55.327 24.7 55.327 55.169V327.604c0 30.464-24.773 55.169-55.327 55.169z m0 0zM845.712 797.979H590.375c-30.554 0-55.326-24.703-55.326-55.169v-254.606c0-30.469 24.772-55.169 55.326-55.169h255.337c30.558 0 55.326 24.7 55.326 55.169V742.81c0 30.466-24.768 55.169-55.326 55.169z m0 0zM845.712 382.773H590.375c-30.554 0-55.326-24.704-55.326-55.169v-254.607c0-30.474 24.772-55.169 55.326-55.169h255.337c30.558 0 55.326 24.7 55.326 55.169V327.604c0 30.464-24.768 55.169-55.326 55.169z m0 0z"  horiz-adv-x="1024" />

    
    <glyph glyph-name="list-img" unicode="&#58669;" d="M459.599 500.493c0-40.349-33.013-73.362-73.362-73.362H218.548c-40.349 0-73.362 33.013-73.362 73.362V668.182c0 40.349 33.013 73.362 73.362 73.362h167.684c40.349 0 73.362-33.013 73.362-73.362v-167.689z m419.211-419.21c0-40.349-33.013-73.362-73.362-73.362H637.764c-40.349 0-73.362 33.013-73.362 73.362V248.967c0 40.349 33.013 73.362 73.362 73.362h167.684c40.349 0 73.362-33.013 73.362-73.362v-167.684z m0 419.21c0-40.349-33.013-73.362-73.362-73.362H637.764c-40.349 0-73.362 33.013-73.362 73.362V668.182c0 40.349 33.013 73.362 73.362 73.362h167.684c40.349 0 73.362-33.013 73.362-73.362v-167.689z m-419.211-419.21c0-40.349-33.013-73.362-73.362-73.362H218.548c-40.349 0-73.362 33.013-73.362 73.362V248.967c0 40.349 33.013 73.362 73.362 73.362h167.684c40.349 0 73.362-33.013 73.362-73.362v-167.684z"  horiz-adv-x="1024" />

    
    <glyph glyph-name="list-menu" unicode="&#58670;" d="M409.113 800.148h-299.65c-24.82 0-44.947-20.137-44.947-44.956v-299.62c0-24.82 20.127-44.957 44.947-44.957h299.65c24.79 0 44.945 20.137 44.945 44.956V755.192c0 24.82-20.156 44.956-44.945 44.956z m460.658-460.67h-299.66c-24.82 0-44.936-20.116-44.936-44.935v-299.64c0-24.821 20.116-44.937 44.937-44.937h299.66c24.8 0 44.936 20.116 44.936 44.936v299.64c0 24.82-20.137 44.936-44.937 44.936z m67.765 345.957L695.37 813.278c-20.035 10.588-44.876 2.902-55.483-17.114L512.025 553.951c-10.568-20.077-2.892-44.877 17.174-55.505l242.174-127.823c20.056-10.588 44.936-2.902 55.524 17.135L954.72 629.93c10.599 20.076 2.922 44.916-17.184 55.504zM409.113 339.478h-299.65c-24.82 0-44.947-20.116-44.947-44.935v-299.64c0-24.821 20.127-44.937 44.947-44.937h299.65c24.79 0 44.945 20.116 44.945 44.936v299.64c0 24.82-20.156 44.936-44.945 44.936z"  horiz-adv-x="1024" />

    
    <glyph glyph-name="log" unicode="&#58671;" d="M568.889-14.222h-512V782.222h739.555V384h-56.888V725.333H113.778v-682.666H512zM711.111 384c108.089 0 199.111-91.022 199.111-199.111S819.2-14.222 711.112-14.222 512 76.8 512 184.888 603.022 384 711.111 384m0 56.889c-142.222 0-256-113.778-256-256s113.778-256 256-256 256 113.778 256 256-113.778 256-256 256zM227.556 839.11h56.888v-170.667h-56.888z m341.333 0h56.889v-170.667h-56.89zM170.667 554.667h512v-56.89h-512z m0-170.667H455.11v-56.889H170.667z m0-170.667h227.555v-56.889H170.667zM853.333 99.556H682.667V327.11h56.889v-170.667h113.777z"  horiz-adv-x="1024" />

    
    <glyph glyph-name="list-txt" unicode="&#58672;" d="M146.276 146.268v-109.707q0-7.428-5.428-12.856t-12.856-5.429H18.285q-7.429 0-12.857 5.429T0 36.56V146.268q0 7.428 5.428 12.856t12.857 5.429h109.707q7.428 0 12.856-5.429t5.428-12.856z m0 219.415v-109.708q0-7.428-5.428-12.856t-12.856-5.428H18.285q-7.429 0-12.857 5.428T0 255.975V365.683q0 7.428 5.428 12.856t12.857 5.428h109.707q7.428 0 12.856-5.428t5.428-12.856z m0 219.414V475.39q0-7.428-5.428-12.856t-12.856-5.429H18.285q-7.429 0-12.857 5.429T0 475.39V585.097q0 7.428 5.428 12.857t12.857 5.428h109.707q7.428 0 12.856-5.428t5.428-12.857z m877.658-438.829v-109.707q0-7.428-5.428-12.856t-12.856-5.429H237.7q-7.429 0-12.857 5.429t-5.428 12.856V146.268q0 7.428 5.428 12.856t12.856 5.429h767.95q7.429 0 12.857-5.429t5.428-12.856zM146.276 804.512v-109.708q0-7.428-5.428-12.856t-12.856-5.428H18.285q-7.429 0-12.857 5.428T0 694.804V804.512q0 7.428 5.428 12.856t12.857 5.428h109.707q7.428 0 12.856-5.428t5.428-12.856z m877.658-438.83v-109.707q0-7.428-5.428-12.856t-12.856-5.428H237.7q-7.429 0-12.857 5.428t-5.428 12.856V365.683q0 7.428 5.428 12.856t12.856 5.428h767.95q7.429 0 12.857-5.428t5.428-12.856z m0 219.415V475.39q0-7.428-5.428-12.856t-12.856-5.429H237.7q-7.429 0-12.857 5.429t-5.428 12.856V585.097q0 7.428 5.428 12.857t12.856 5.428h767.95q7.429 0 12.857-5.428t5.428-12.857z m0 219.415v-109.708q0-7.428-5.428-12.856t-12.856-5.428H237.7q-7.429 0-12.857 5.428t-5.428 12.856V804.512q0 7.428 5.428 12.856t12.856 5.428h767.95q7.429 0 12.857-5.428t5.428-12.856z"  horiz-adv-x="1024" />

    
    <glyph glyph-name="lucky" unicode="&#58673;" d="M865.745 793.6c0 3.103 0 3.103 0 0-18.618 24.824-46.545 40.34-77.575 40.34H214.11c-55.855 0-99.298-43.443-99.298-99.298v-698.181c0-55.855 43.443-99.297 99.297-99.297h574.06c55.855 0 99.298 43.442 99.298 99.297V734.642c0 21.722-6.206 43.443-21.722 58.958z m-77.575-9.31c3.103 0 9.309 0 12.412-3.102L508.897 595.006 195.491 781.188c6.206 3.103 12.412 3.103 18.618 3.103h574.06z m49.648-750.932c0-27.928-21.721-49.649-49.648-49.649H214.11c-27.928 0-49.65 21.721-49.65 49.649V731.539v6.206l332.025-195.49c9.309-6.207 18.618-3.103 24.824 0l316.51 201.697c0-3.104 3.102-9.31 3.102-12.413v-698.181zM639.224 334.352c12.412 0 24.824 12.412 24.824 24.824S651.636 384 639.224 384h-83.782l71.37 71.37c9.31 9.309 9.31 24.824 0 34.133-9.309 9.31-24.824 9.31-34.133 0L512 408.824h-3.103L431.321 486.4c-9.309 9.31-24.824 9.31-34.133 0-9.31-9.31-9.31-24.824 0-34.133L465.455 384h-74.473c-12.412 0-24.824-12.412-24.824-24.824s12.412-24.824 24.824-24.824h93.09v-74.473h-93.09c-12.412 0-24.824-12.412-24.824-24.824 0-12.413 12.412-24.825 24.824-24.825h93.09v-89.988c0-12.412 12.413-24.824 24.825-24.824 12.412 0 24.824 12.412 24.824 24.824V210.23h108.606c12.412 0 24.825 12.412 24.825 24.825 0 12.412-12.413 24.824-24.825 24.824H533.721v74.473h105.503z"  horiz-adv-x="1024" />

    
    <glyph glyph-name="mail" unicode="&#58674;" d="M892.915 704.057H130.496c-36.735 0-66.515-29.78-66.515-66.514v-570.538c0-36.734 29.78-66.515 66.515-66.515h762.42c36.734 0 66.514 29.78 66.514 66.515V637.543c0 36.735-29.779 66.514-66.515 66.514z m-28.145-63.96c0.518 0 1.033-0.014 1.545-0.04L511.879 331.055 157.435 640.067c0.4 0.015 0.802 0.03 1.206 0.03h706.13z m0-575.646H158.641c-16.955 0-30.7 13.744-30.7 30.7V581.122L490.17 265.325c5.995-5.995 13.853-8.992 21.71-8.992 7.858 0 15.716 2.997 21.71 8.992L895.47 580.82V95.15c0-16.955-13.743-30.7-30.699-30.7z"  horiz-adv-x="1024" />

    
    <glyph glyph-name="manager" unicode="&#58675;" d="M537.216-107.776h-427.52c-27.072 0-52.8 11.456-70.592 31.296A76.352 76.352 0 0 0 19.2-17.6l-0.192 60.16a32 32 0 0 0 64 0v-63.872c-0.384-5.44 0.576-8.832 3.968-12.608a30.656 30.656 0 0 1 22.72-9.856h427.52a32 32 0 0 0 0-64zM50.752-38.144a32 32 0 0 0-32 32v60.032a457.536 457.536 0 0 0 277.952 421.12 32.192 32.192 0 0 0 42.048-16.832 32.128 32.128 0 0 0-16.896-42.112 393.408 393.408 0 0 1-239.104-362.24v-60.032a32 32 0 0 0-32-31.936zM460.736 381.504a247.36 247.36 0 0 0-247.104 247.104A247.424 247.424 0 0 0 460.736 875.776a247.424 247.424 0 0 0 247.168-247.168 247.36 247.36 0 0 0-247.168-247.104z m0 430.272a183.36 183.36 0 0 1-183.104-183.168 183.296 183.296 0 0 1 183.104-183.104 183.36 183.36 0 0 1 183.168 183.104A183.36 183.36 0 0 1 460.736 811.776zM778.56 66.624c-42.944 0-77.888 34.944-77.888 77.888S735.616 222.4 778.56 222.4s77.888-34.944 77.888-77.888-34.944-77.888-77.888-77.888z m0 110.976a33.216 33.216 0 1 1 0.064-66.368 33.216 33.216 0 0 1-0.064 66.368zM834.56-64.384a22.4 22.4 0 0 0-22.144 19.2 35.2 35.2 0 0 1-34.56 30.208c-17.152 0-32-12.864-34.624-30.016a22.272 22.272 0 0 0-28.736-17.984 217.536 217.536 0 0 0-84.352 49.344 22.4 22.4 0 0 0 1.28 33.728 35.136 35.136 0 0 1 8.32 44.864 35.84 35.84 0 0 1-42.88 15.04 22.4 22.4 0 0 0-29.76 15.936c-3.712 16.448-5.632 32.768-5.632 48.64s1.92 32.192 5.632 48.64a22.144 22.144 0 0 0 11.2 14.72 22.528 22.528 0 0 0 18.496 1.216 34.944 34.944 0 1 1 34.56 59.968 22.336 22.336 0 0 0-8.192 16.64 21.248 21.248 0 0 0 6.976 16.96A217.472 217.472 0 0 0 714.496 352a22.4 22.4 0 0 0 28.672-18.048A35.328 35.328 0 0 1 777.792 304a35.2 35.2 0 0 1 34.56 30.208 22.4 22.4 0 0 0 28.608 18.304 217.6 217.6 0 0 0 85.248-49.088 22.336 22.336 0 0 0-1.472-34.048 34.88 34.88 0 0 1-8.896-45.056 35.84 35.84 0 0 1 43.776-14.784 22.592 22.592 0 0 0 30.208-15.552 214.336 214.336 0 0 0 0-98.816 22.592 22.592 0 0 0-30.336-15.552 35.456 35.456 0 0 1-43.648-14.72 35.008 35.008 0 0 1 8.96-45.184 22.4 22.4 0 0 0 1.408-34.048 218.368 218.368 0 0 0-85.312-49.024 19.584 19.584 0 0 0-6.336-1.024z m-56.768 94.144c30.144 0 57.024-17.216 70.592-42.752 10.624 4.736 20.864 10.624 30.528 17.536a79.232 79.232 0 0 0-1.728 82.56 81.024 81.024 0 0 0 72.832 39.744 164.16 164.16 0 0 1 0 35.264 81.28 81.28 0 0 0-72.768 39.68 80.128 80.128 0 0 0 1.792 82.496 166.336 166.336 0 0 1-30.656 17.664c-13.504-25.6-40.448-42.816-70.592-42.816-29.824 0-56.64 17.024-70.336 42.304a179.072 179.072 0 0 1-30.336-17.792c15.104-24.384 16.256-55.68 1.28-81.792-14.528-25.216-43.008-42.432-71.296-39.872a147.776 147.776 0 0 1 0-35.008 83.84 83.84 0 0 0 71.296-39.744c15.04-26.24 13.888-57.536-1.216-81.92a169.633 169.633 0 0 1 30.336-17.792c13.696 25.216 40.512 42.24 70.272 42.24z"  horiz-adv-x="1024" />

    
    <glyph glyph-name="move" unicode="&#58676;" d="M809.89 16.29H116.365V709.819H460.8v69.818H79.127c-18.618 0-32.582-18.618-32.582-37.236v-763.345c0-18.619 13.964-32.582 32.582-32.582h763.346c18.618 0 32.582 13.963 32.582 32.582V346.764h-69.819V16.29zM944.873 821.527H665.6v-69.818h200.145l-358.4-358.4 46.546-46.545 358.4 358.4V528.29h65.164v256c0 18.618-13.964 37.236-32.582 37.236z"  horiz-adv-x="1024" />

    
    <glyph glyph-name="open" unicode="&#58677;" d="M918.1 381.1c0-22.336-18.275-40.61-40.61-40.61H146.51c-22.336 0-40.61 18.274-40.61 40.61v5.801c0 22.336 18.274 40.61 40.61 40.61h730.98c22.335 0 40.61-18.274 40.61-40.61v-5.801z"  horiz-adv-x="1024" />

    
    <glyph glyph-name="message" unicode="&#58678;" d="M292.023 471.044c-30.397 0-54.994-24.597-54.994-54.994s24.697-54.994 54.994-54.994c30.396 0 54.994 24.597 54.994 54.994s-24.598 54.994-54.994 54.994z m439.953 0c-30.396 0-54.993-24.597-54.993-54.994s24.697-54.994 54.993-54.994 54.895 24.597 54.995 54.994c0 30.397-24.698 54.994-54.995 54.994z m-219.976 0c-30.397 0-54.995-24.597-54.995-54.994s24.698-54.994 54.995-54.994 54.994 24.597 54.994 54.994-24.697 54.993-54.994 54.993zM983.35 604.131c-25.897 57.094-62.993 108.388-110.288 152.384-46.995 43.795-101.69 78.191-162.583 102.19C647.585 883.4 580.793 896 512 896c-68.794 0-135.586-12.599-198.479-37.296-60.894-23.998-115.589-58.394-162.584-102.189-47.194-43.996-84.291-95.19-110.289-152.384C13.752 544.736 0.053 481.643 0.053 416.651c0-116.889 45.095-228.677 127.187-316.269l23.097-196.578c1.4-12 8.7-22.498 19.498-27.897a35.79 35.79 0 0 1 16.2-3.9c6.098 0 12.297 1.6 17.797 4.7l148.284 84.29c51.395-15.797 105.09-23.796 159.784-23.796 68.793 0 135.586 12.597 198.479 37.295 60.893 23.998 115.589 58.394 162.583 102.19 47.195 43.995 84.291 95.189 110.289 152.384 26.997 59.393 40.596 122.387 40.596 187.48 0.1 65.093-13.6 128.186-40.496 187.581z m-65.593-345.165c-21.998-48.394-53.494-91.989-93.79-129.486-40.396-37.596-87.49-67.193-139.985-87.891-54.495-21.497-112.39-32.296-172.082-32.296-52.295 0-103.59 8.399-152.184 24.997-9.8 3.3-20.498 2.3-29.398-2.8l-114.886-65.293-18.2 154.684c-0.9 8-4.5 15.398-10.099 21.098-74.19 75.192-115.087 172.782-115.087 274.671 0 54.694 11.499 107.69 34.196 157.683 21.998 48.396 53.494 91.99 93.79 129.487 40.396 37.596 87.492 67.193 139.986 87.89C394.411 813.11 452.306 824.008 512 824.008s117.587-10.898 172.082-32.296c52.494-20.698 99.59-50.195 139.985-87.89 40.196-37.497 71.792-80.992 93.79-129.488 22.698-49.994 34.197-102.99 34.197-157.683-0.1-54.694-11.6-107.689-34.297-157.684z"  horiz-adv-x="1024" />

    
    <glyph glyph-name="order" unicode="&#58679;" d="M908.8 518.4L793.6 320h89.6C838.4 140.8 672 12.8 486.4 12.8c-224 0-409.6 185.6-409.6 409.6s179.2 416 409.6 416c44.8 0 89.6-6.4 128-19.2l19.2 51.2C582.4 889.6 531.2 896 486.4 896 230.4 896 19.2 684.8 19.2 428.8s211.2-467.2 467.2-467.2c217.6 0 409.6 153.6 454.4 364.8h96l-128 192z m-409.6-19.2L384 665.6l-44.8-32 96-140.8H352v-57.6h140.8V384H352v-57.6h140.8v-140.8h57.6V326.4h140.8V384H550.4v57.6h140.8v57.6h-76.8L704 633.6l-44.8 32L544 499.2h-44.8z"  horiz-adv-x="1037" />

    
    <glyph glyph-name="order-full" unicode="&#58680;" d="M946.405 314.964L589.998 2.692c-21.728-17.535-49.298-28.078-79.348-28.078-29.805 0-57.153 10.4-78.799 27.663L75.557 314.151c-7.775 8.936-12.644 20.48-12.644 33.28 0 23.308 15.746 42.752 37.086 48.746 0 0 5.127 1.988 12.6 1.988h104.987v325.39c0 46.8 35.208 81.406 81.868 81.406h422.39c46.66 0 81.867-34.607 81.867-81.407v-325.388h102.986c0.34 0 0.658 0.098 1 0.098 0.341 0 0.66-0.098 1.002-0.098h1.183l0.058-0.127c26.925-1.209 48.446-23.307 48.446-50.608 0-12.419-4.612-23.644-11.98-32.467zM624.617 454.912c18.658 0 29.648 14.482 29.648 33.196s-10.989 31.93-29.648 31.93l-71.856 0.02 74.243 74.613c13.291 13.325 13.291 34.933 0 48.264-13.285 13.332-34.837 13.332-48.121 0l-68.806-69.012-68.534 68.742c-13.293 13.332-34.837 13.332-48.122 0-13.293-13.331-13.293-34.94 0-48.263l74.15-74.386-70.889 0.023c-18.659 0-29.647-13.216-29.647-31.93s10.988-33.196 29.647-33.196h73.265v-40.703h-73.265c-18.659 0-29.647-12.12-29.647-30.849 0-18.714 10.988-34.275 29.647-34.275h73.265v-48.843c0-23.388 17.37-40.703 40.704-40.703 23.325 0 40.702 17.315 40.702 40.703v48.843h75.36c18.658 0 27.553 12.491 27.553 31.206 0 24.347-12.987 33.918-31.646 33.918h-71.267v40.703h73.264z"  horiz-adv-x="1024" />

    
    <glyph glyph-name="pencil" unicode="&#58681;" d="M864 896a160 160 0 0 0 128-256l-64-64L704 800l64 64c26.752 20.096 59.968 32 96 32zM64 160L0-128l288 64 592 592-224 224L64 160z m651.584 372.416l-448-448-55.168 55.168 448 448 55.168-55.168z"  horiz-adv-x="1024" />

    
    <glyph glyph-name="plugin-full" unicode="&#58682;" d="M854.947507 664.758331c-17.223187-17.223187-45.1419-17.223187-62.365086 0s-17.223187 45.1429 0 62.366086L948.518625 883.08261c17.223187 17.223187 45.1419 17.223187 62.365087 0 17.223187-17.245175 17.223187-45.164888 0-62.388075L854.947507 664.758331zM688.315776 582.5464c-18.568498 0-34.380407 11.51111-40.886078 27.742804-39.739664 23.927756-85.764113 38.415342-135.537643 38.415342-57.138761 0-109.911756-18.280645-153.179615-49.088881l-62.937793 62.960782c59.74043 46.421245 134.588129 74.339959 216.117408 74.339959 81.530279 0 156.377978-27.918713 216.119408-74.339959l-6.792524-6.814513c6.880479-7.785016 11.203267-17.906837 11.203267-29.110103 0-24.346541-19.7379-44.10543-44.10643-44.105431z m-374.899157-22.052715c0-18.568498-11.512109-34.380407-27.742804-40.886078-23.927756-39.739664-38.416342-85.764113-38.416341-135.537643 0-57.138761 18.303634-109.911756 49.08988-153.157626l-62.960782-62.960782c-46.422245 59.741429-74.340958 134.589128-74.340959 216.118408 0 81.52928 27.918713 156.376979 74.340959 216.119408l6.813513-6.793524c7.785016 6.880479 17.907836 11.204267 29.110104 11.204267 24.36853 0 44.10643-19.7379 44.10643-44.10743z m-144.579016 104.266645L12.901398 820.694535c-17.224186 17.223187-17.224186 45.1429 0 62.388075 17.223187 17.223187 45.1419 17.223187 62.365087 0l155.936204-155.958193c17.223187-17.223187 17.223187-45.1429 0-62.366086-17.223187-17.223187-45.1419-17.223187-62.365086 0z m0-561.379732c17.223187 17.223187 45.1419 17.223187 62.365086 0s17.223187-45.1429 0-62.366086L75.266485-114.922692c-17.223187-17.223187-45.1419-17.223187-62.365087 0-17.224186 17.223187-17.224186 45.1429 0 62.366086l155.936205 155.936205z m166.631731 82.21293c18.568498 0 34.380407-11.489121 40.886078-27.742803 39.739664-23.927756 85.764113-38.416342 135.536643-38.416342 57.139761 0 109.911756 18.304633 153.179615 49.08988l62.939793-62.937794c-59.741429-46.444234-134.589128-74.362947-216.119408-74.362947-81.52828 0-156.376979 27.918713-216.118408 74.361948l6.792524 6.792524c-6.880479 7.785016-11.203267 17.906837-11.203267 29.110104 0 24.367531 19.7379 44.10543 44.10643 44.10543z m374.899157 22.052716c0 18.568498 11.49012 34.380407 27.742804 40.886077 23.927756 39.739664 38.416342 85.764113 38.416341 135.537643 0 57.138761-18.303634 109.911756-49.08988 153.179615l62.938794 62.938793c46.444234-59.741429 74.361948-134.589128 74.361947-216.118408 0-81.52928-27.917714-156.376979-74.339959-216.119407l-6.813513 6.792524c-7.786016-6.880479-17.907836-11.202268-29.110104-11.202268-24.36853 0-44.10643 19.7369-44.10643 44.105431z m144.579016-104.266645l155.936205-155.935205c17.223187-17.223187 17.223187-45.1429 0-62.366086-17.223187-17.223187-45.1419-17.223187-62.365087 0L792.582421 41.013513c-17.223187 17.223187-17.223187 45.1429 0 62.366086 17.223187 17.223187 45.1419 17.223187 62.365086 0z"  horiz-adv-x="1024" />

    
    <glyph glyph-name="phone" unicode="&#58683;" d="M942.08 157.696c-25.6 23.552-55.296 47.104-76.8 61.44-27.648 19.456-57.344 38.912-84.992 51.2-43.008 21.504-59.392 25.6-70.656 25.6-19.456 0-35.84-10.24-51.2-29.696-8.192-12.288-17.408-29.696-23.552-45.056-4.096-10.24-12.288-27.648-17.408-33.792-8.192 2.048-31.744 12.288-70.656 37.888-35.84 25.6-74.752 57.344-104.448 84.992-29.696 29.696-59.392 68.608-84.992 104.448-25.6 37.888-35.84 61.44-37.888 70.656 6.144 4.096 23.552 12.288 33.792 17.408 15.36 6.144 31.744 12.288 45.056 23.552 21.504 15.36 29.696 31.744 29.696 51.2 0 10.24-2.048 27.648-25.6 70.656-12.288 25.6-31.744 55.296-51.2 84.992-15.36 21.504-38.912 51.2-61.44 76.8-27.648 27.648-47.104 40.96-66.56 40.96-47.104 0-100.352-68.608-114.688-87.04-19.456-25.6-66.56-96.256-66.56-159.744 0-59.392 40.96-138.24 74.752-194.56C161.792 336.896 225.28 256 293.888 185.344l21.504-21.504c70.656-68.608 149.504-132.096 224.256-177.152 23.552-15.36 51.2-29.696 78.848-43.008 4.096-2.048 6.144-2.048 10.24-2.048a27.533 27.533 0 0 1 27.648 27.648c0 10.24-6.144 21.504-17.408 25.6-21.504 10.24-45.056 23.552-70.656 38.912-70.656 43.008-145.408 102.4-212.992 168.96l-21.504 21.504c-66.56 68.608-125.952 143.36-168.96 212.992-43.008 68.608-66.56 128-66.56 163.84 0 31.744 19.456 78.848 53.248 123.904 15.36 19.456 29.696 37.888 45.056 51.2 15.36 13.312 23.552 17.408 27.648 17.408 10.24-4.096 43.008-31.744 87.04-98.304 17.408-25.6 33.792-51.2 45.056-74.752 15.36-27.648 17.408-40.96 17.408-43.008 0 0-4.096-4.096-10.24-8.192-8.192-4.096-21.504-10.24-31.744-15.36-15.36-6.144-27.648-12.288-40.96-19.456-19.456-12.288-27.648-27.648-27.648-45.056 0-8.192 0-33.792 49.152-104.448 25.6-37.888 59.392-80.896 92.16-112.64 31.744-31.744 74.752-66.56 112.64-92.16 70.656-47.104 96.256-49.152 104.448-49.152 17.408 0 31.744 8.192 45.056 27.648 8.192 10.24 12.288 25.6 19.456 40.96 4.096 10.24 10.24 23.552 15.36 31.744 6.144 4.096 10.24 6.144 10.24 6.144 2.048 0 15.36-2.048 43.008-17.408 21.504-12.288 49.152-27.648 74.752-45.056 63.488-45.056 94.208-76.8 98.304-87.04-2.048-4.096-6.144-12.288-17.408-27.648-12.288-15.36-31.744-31.744-51.2-45.056-29.696-21.504-61.44-38.912-87.04-47.104-10.24-4.096-17.408-15.36-17.408-25.6a27.533 27.533 0 0 1 27.648-27.648c2.048 0 4.096 0 6.144 2.048 2.048 0 2.048 0 4.096 2.048 45.056 15.36 82.944 40.96 102.4 55.296 21.504 15.36 87.04 70.656 87.04 115.712 0 20.48-12.288 39.936-39.936 67.584z"  horiz-adv-x="1024" />

    
    <glyph glyph-name="position" unicode="&#58684;" d="M518.4 848C304 848 128 672 128 454.4c0-48 16-99.2 41.6-156.8C198.4 240 240 179.2 288 115.2c35.2-41.6 73.6-83.2 108.8-121.6l35.2-35.2c6.4-6.4 12.8-9.6 12.8-12.8 38.4-38.4 102.4-38.4 137.6 0l12.8 12.8 35.2 35.2c38.4 38.4 73.6 80 108.8 121.6C790.4 176 832 240 857.6 297.6c28.8 57.6 41.6 108.8 41.6 156.8C908.8 672 732.8 848 518.4 848z m304-528c-25.6-54.4-64-112-115.2-172.8-35.2-41.6-70.4-83.2-105.6-118.4l-35.2-35.2-12.8-12.8c-19.2-19.2-51.2-19.2-70.4 0l-12.8 12.8-35.2 35.2c-35.2 38.4-73.6 76.8-105.6 118.4-48 60.8-86.4 118.4-115.2 172.8-25.6 51.2-38.4 96-38.4 134.4C176 646.4 329.6 800 518.4 800c188.8 0 342.4-153.6 342.4-345.6 0-38.4-12.8-83.2-38.4-134.4zM518.4 633.6c-96 0-169.6-76.8-169.6-172.8 0-96 76.8-172.8 169.6-172.8S688 364.8 688 460.8c0 96-73.6 172.8-169.6 172.8z m0-294.4c-67.2 0-121.6 54.4-121.6 124.8s54.4 124.8 121.6 124.8c67.2 0 121.6-54.4 121.6-124.8s-54.4-124.8-121.6-124.8z"  horiz-adv-x="1024" />

    
    <glyph glyph-name="remove" unicode="&#58685;" d="M602.7 384.1l271.7 271.7c24.9 24.9 24.9 65.5 0 90.4-24.9 24.9-65.5 24.9-90.4 0L512.3 474.5 240.6 746.2c-24.9 24.9-65.5 24.9-90.4 0-24.9-24.9-24.9-65.5 0-90.4l271.7-271.7-271.7-271.7c-24.9-24.9-24.9-65.5 0-90.4 24.9-24.9 65.5-24.9 90.4 0l271.7 271.7L784.1 22c24.9-24.9 65.5-24.9 90.4 0 24.9 24.9 24.9 65.5 0 90.4L602.7 384.1z"  horiz-adv-x="1024" />

    
    <glyph glyph-name="return" unicode="&#58686;" d="M955.86 14.159l-31.917 45.585c-69.892 101.76-132.19 165.578-186.891 191.456-54.702 25.833-126.88 38.748-216.533 38.748v-198.294L69.231 399.352 520.52 707.05v-198.295c151.143-1.518 261.5-37.607 331.013-108.264S955.86 220.05 955.86 71.14v-56.982zM484.051 326.417h18.235c48.624 0 85.47-1.14 110.54-3.42 25.071-2.278 56.598-9.116 94.594-20.512 37.986-11.396 73.694-31.577 107.118-60.4 33.434-28.87 68.385-66.905 104.854-113.963-7.606 121.56-44.452 209.311-110.552 263.254-66.09 53.894-168.278 80.913-306.554 80.913H484.05V638.673L133.045 399.352 484.052 160.03V326.417z"  horiz-adv-x="1024" />

    
    <glyph glyph-name="save" unicode="&#58687;" d="M608 576c17.664 0 32 14.304 32 32V736c0 17.696-14.336 32-32 32s-32-14.304-32-32v-128c0-17.696 14.336-32 32-32z m352-576c0-35.328-28.672-64-64-64H128c-35.328 0-64 28.672-64 64V768c0 35.328 28.672 64 64 64h64v-320c0-35.328 28.672-64 64-64h512c35.328 0 64 28.672 64 64V832h64c35.328 0 64-28.672 64-64v-768zM256 832h512v-288c0-17.696-14.336-32-32-32H288c-17.664 0-32 14.304-32 32V832zM896 896H128C57.312 896 0 838.688 0 768v-768c0-70.688 57.312-128 128-128h768c70.688 0 128 57.312 128 128V768c0 70.688-57.312 128-128 128z"  horiz-adv-x="1024" />

    
    <glyph glyph-name="pdf" unicode="&#58688;" d="M905.179865 717.150272c-6.609955 6.158958-13.992905 13.019912-21.969851 20.407862-22.792846 21.112857-45.78069 42.227714-67.517542 61.94758-2.454983 2.225985-2.454983 2.225985-4.911967 4.44997-29.001803 26.256822-53.194639 47.660677-71.071518 62.743575-10.459929 8.82494-18.692873 15.432895-24.742833 19.791865-4.015973 2.89298-7.279951 4.976966-10.499928 6.502956-4.052973 1.921987-7.832947 3.092979-13.163911 2.99298C677.041411 895.720062 665.595489 884.22414 665.595489 869.810237V639.546798H895.993928l-25.599827 25.584827v-767.546798L895.993928-76.830347H230.379439c-42.476712 0-76.78048 34.205768-76.78048 76.622481V869.810237L127.999133 844.225411h460.796877c14.137904 0 25.599827 11.454922 25.599826 25.584826S602.933914 895.395064 588.79601 895.395064H102.399306v-895.60293C102.399306-70.910387 159.651918-128 230.379439-128H921.593754V690.716451H691.195316l25.599826-25.584826V869.810237c0-13.629908-11.051925-24.730832-24.531834-24.98383-4.561969-0.085999-7.197951 0.730995-9.739934 1.935987-0.268998 0.126999 0.816994-0.565996 2.500983-1.779988 4.749968-3.421977 12.116918-9.333937 21.656854-17.382882 17.322883-14.614901 41.129721-35.678758 69.727527-61.567583a6296.03733 6296.03733 0 0 0 4.870967-4.41497c21.591854-19.586867 44.453699-40.586725 67.128545-61.589583a9988.951301 9988.951301 0 0 0 21.855852-20.302862c3.939973-3.670975 6.749954-6.295957 8.229944-7.680948 10.31893-9.659935 26.51882-9.129938 36.183755 1.182992s9.134938 26.50382-1.183992 36.162755a5497.69274 5497.69274 0 0 1-8.313944 7.759947zM102.399306 434.866185H0v-434.943052h1023.99306V434.867185H153.598959v0.597996h-51.199653v-0.597996zM208.198589 184.997879v-108.199267h-50.599657V367.996638H268.998177c32.53278 0 58.366604-8.466943 77.499475-25.399827 19.13287-16.932885 28.699805-39.332733 28.699805-67.199545 0-28.532807-9.366937-50.732656-28.099809-66.599549-18.732873-15.866892-44.965695-23.799839-78.699467-23.799838h-60.199592z m0 40.599725H268.998177c17.999878 0 31.732785 4.232971 41.199721 12.699913 9.466936 8.466943 14.199904 20.69986 14.199903 36.699752 0 15.732893-4.799967 28.299808-14.399902 37.699744-9.599935 9.399936-22.799845 14.232904-39.599732 14.499902h-62.199578v-101.599311z m211.198569-148.798992V367.996638h85.999417c25.732826 0 48.566671-5.732961 68.499536-17.199883 19.932865-11.466922 35.36676-27.732812 46.299686-48.799669 10.932926-21.066857 16.399889-45.199694 16.399889-72.39951V214.997675c0-27.599813-5.499963-51.866648-16.499889-72.799506s-26.666819-37.066749-46.999681-48.399672c-20.332862-11.332923-43.632704-16.999885-69.899526-16.999885h-83.799432zM469.996815 327.196915v-209.998577h32.999776c26.53282 0 46.899682 8.299944 61.099586 24.899831 14.199904 16.599887 21.432855 40.432726 21.699853 71.499516v16.19989c0 31.599786-6.866953 55.732622-20.599861 72.399509-13.732907 16.666887-33.666772 24.999831-59.799594 24.999831H469.996815z m384.797392-126.999139H737.595001v-123.399164H686.995344V367.996638h184.998746v-40.799723H737.595001v-86.599413h117.199206v-40.399726z"  horiz-adv-x="1024" />

    
    <glyph glyph-name="search" unicode="&#58689;" d="M946.222 51.006L727.729 271.332c-2.543 2.549-5.353 4.496-8.036 6.617 36.908 57.103 58.459 125.121 58.459 198.387 0 201.282-161.79 364.428-361.498 364.428-199.596 0-361.498-163.146-361.498-364.428 0-201.31 161.902-364.42 361.498-364.42 72.648 0 140.196 21.784 196.926 58.999 2.066-2.768 3.961-5.521 6.463-8.05l218.521-220.353c14.919-14.997 34.35-22.472 53.809-22.472 19.472 0 38.916 7.474 53.822 22.436 29.684 29.996 29.684 78.557 0.027 108.53M416.654 226.993c-136.347 0-247.334 111.872-247.334 249.343 0 137.45 110.988 249.351 247.334 249.351s247.334-111.901 247.334-249.351c0.001-137.47-110.988-249.343-247.334-249.343"  horiz-adv-x="1024" />

    
    <glyph glyph-name="selected" unicode="&#58690;" d="M958.28 651.735l-48.44 43.73L417.563 198.93l-271.86 284.112-47.09-45.065 316.01-330.133 3.458 3.31 2.238-2.02z"  horiz-adv-x="1024" />

    
    <glyph glyph-name="setting" unicode="&#58691;" d="M962.016 456l-4 24-72.992 24.992q-10.016 30.016-24 58.016L895.04 632l-14.016 19.008q-43.008 60-102.016 103.008l-20 14.016-68.992-35.008q-28 14.016-58.016 24l-24 72.992-24 4q-39.008 6.016-72 6.016t-72-6.016l-24-4-24.992-72.992q-30.016-10.016-56.992-24l-68.992 35.008-20-15.008q-59.008-43.008-102.016-102.016l-14.016-20 34.016-68.992q-14.016-28-24-56.992l-72.992-24.992-4-24Q56 417.024 56 384.032t6.016-72l4-24 72.992-24.992q10.016-30.016 24-56.992l-34.016-68.992 14.016-20q22.016-30.016 47.008-55.008 23.008-23.008 55.008-47.008l20-14.016 68.992 34.016q28-14.016 56.992-24L416-61.952l24-4q39.008-6.016 72-6.016t72 6.016l24 4 24.992 72.992q28.992 10.016 56.992 24l68.992-35.008 20 15.008q32 23.008 55.008 47.008 24 23.008 47.008 55.008l14.016 20-34.016 68.992q14.016 28 24 58.016l72.992 24 4 24q6.016 39.008 6.016 72t-6.016 72zM896 384.992V384q0-19.008-2.016-42.016l-36-11.008-31.008-11.008-10.016-32q-8-27.008-20.992-52l-16-28.992 32-63.008q-14.016-16.992-28-31.008v-0.992q-14.016-14.016-32-27.008l-62.016 31.008-28.992-15.008q-26.016-12.992-54.016-22.016l-31.008-10.016-10.016-31.008-12-35.008q-20.992-3.008-42.016-3.008-19.008 0-42.016 3.008L458.88 37.92l-11.008 31.008-31.008 10.016q-28 8.992-52.992 22.016l-28.992 15.008-30.016-15.008-32.992-16q-16.992 12.992-31.008 28-15.008 14.016-28 31.008l31.008 62.016-15.008 28.992q-14.016 27.008-22.016 52.992l-10.016 32-66.016 22.016q-3.008 20.992-3.008 42.016 0 19.008 3.008 42.016l66.016 22.016 10.016 31.008q8 27.008 22.016 52.992l15.008 30.016-15.008 28.992-16 32.992q26.016 32.992 59.008 59.008l62.016-31.008 30.016 15.008q24.992 14.016 52.992 22.016l31.008 10.016 10.016 31.008 12 36q23.008 2.016 42.016 2.016 20 0 42.016-2.016l22.016-67.008 31.008-8.992q28-8.992 54.016-22.016l28.992-16 62.016 32q32.992-27.008 60-60l-32-62.016 15.008-28.992q14.016-26.016 23.008-52.992l8.992-32 31.008-10.016 36-12q3.008-22.016 2.016-40.992zM512 557.984q-72 0-123.008-51.008t-51.008-123.008 51.008-123.008T512 209.952t123.008 51.008 51.008 123.008-51.008 123.008T512 557.984zM584 312q-30.016-30.016-72-30.016T440 312t-30.016 72T440 456t72.512 30.016 72-30.016 29.504-72T584 312z"  horiz-adv-x="1024" />

    
    <glyph glyph-name="site" unicode="&#58692;" d="M937.695-15.325H741.22c-36.151 0-65.492 29.34-65.492 65.492V179.644c0 36.151 29.34 65.491 65.492 65.491h65.492V375.334H217.287v-130.199h65.492c36.151 0 65.491-29.34 65.491-65.491v-129.476c0-36.152-29.34-65.492-65.491-65.492H86.304c-36.151 0-65.491 29.34-65.491 65.492V179.644c0 36.151 29.34 65.491 65.491 65.491h65.492v162.55 0.197c0 18.01 14.604 32.55 32.549 32.55h294.909V570.693h-65.492c-36.151 0-65.492 29.275-65.492 65.492V765.597c0 36.217 29.34 65.492 65.492 65.492h196.475c36.151 0 65.491-29.275 65.491-65.492v-129.411c0-36.217-29.34-65.492-65.491-65.492h-65.492v-130.263h294.909c17.945 0 32.55-14.539 32.55-32.55v-162.745h65.49c36.152 0 65.492-29.34 65.492-65.492v-129.476c0-36.153-29.34-65.493-65.491-65.493z"  horiz-adv-x="1024" />

    
    <glyph glyph-name="purse" unicode="&#58693;" d="M875.603 295.606c-28.363 102.414-89.096 181.477-184.04 235.25-10.912 6.18-22.449 11.328-33.71 16.963 0.073 0.156 0.125 0.505 0.334 0.69 1.89 1.767 3.822 3.495 5.726 5.248 19.539 18.07 37.083 38.97 46.251 63.63 4.446 11.952 5.545 17.154 8.63 28.249 5.744 35.044-0.858 56.347-22.38 74.056-29.086 23.937-62.088 26.767-96.947 12.716-2.42-0.972-4.025-1.682-6.434 0.524-44.871 41.062-116.908 41.445-162.086 0.903-2.108-1.895-3.635-2.372-6.373-1.155-18.33 8.164-37.493 9.911-57.162 5.978-37.276-7.454-68.106-38.14-62.635-80.049 4.748-36.358 19.31-67.82 44.413-94.941 5.153-5.57 10.63-10.858 16.175-16.49-1.38-0.65-2.75-1.324-4.144-1.944-128.24-56.748-214.87-180.055-225.012-320.309-2.806-38.785-0.458-77.189 9.605-115.22 15.848-59.908 70.303-104.786 135.686-104.64 154.08 0.342 308.163-0.035 462.243 0.192 49.498 0.075 87.602 21.575 115.252 60.723 14.051 19.9 20.622 42.497 24.448 66.169 8.904 55.064 7.054 109.648-7.84 163.457z m-31.637-136.94c-3.31-21.561-6.898-44.175-19.066-62.3-23.947-35.664-69.818-55.245-112.684-55.316-133.442-0.207-266.89 0.137-400.333-0.175-56.627-0.13-110.036 31.336-123.765 85.905-8.714 34.647-7.773 77.984-5.34 113.314 8.787 127.76 124.523 248.24 235.59 299.934 1.208 0.56-32.005 29.644-36.473 34.716-21.745 24.704-35.324 44.714-39.431 77.833-5.05 40.659 25.395 52.655 43.82 56.534 17.039 3.585 53.2-14.566 55.028-12.838 39.128 36.931 101.52 36.58 140.377-0.822 2.089-2.01 3.478-1.365 5.571-0.477 30.195 12.802 55.725 20.69 80.918-1.113 18.643-16.132 19.074-28.113 14.503-53.447-2.775-10.51-20.017-38.614-26.597-47.327-24.327-32.18-48.136-52.72-49.78-54.326-0.177-0.172 51.997-24.63 60.718-31.266 80.538-61.279 134.833-108.67 159.395-201.961 12.9-49.016 25.258-96.71 17.549-146.868zM511.88 379.628l-45.636 48.929c-6.336 6.795-10.777 11.892-13.311 15.29-5.066 4.755-11.724 8.663-19.966 11.72-8.236 3.057-15.206 1.189-20.912-5.605-5.072-7.474-6.337-14.781-3.807-21.918 2.536-7.132 5.389-12.742 8.559-16.817l14.259-14.274a5434.147 5434.147 0 0 1 22.82-26.5c9.505-10.874 19.964-22.428 31.37-34.661l-0.947-21.405h-64.65c-5.705 0-10.615-2.377-14.738-7.137-4.118-4.753-6.178-9.85-6.178-15.29 0-5.435 1.904-10.193 5.705-14.27 3.8-4.08 8.872-6.119 15.213-6.119h64.65v-35.677h-64.65c-5.706 0-10.616-1.869-14.739-5.605-4.118-3.738-6.178-8.668-6.178-14.781-0.63-5.44 1.114-10.024 5.23-13.76 4.118-3.741 9.352-5.61 15.687-5.61h64.65v-20.387c0.634-9.514 3.487-16.137 8.558-19.874 5.065-3.738 11.406-5.61 19.012-5.61 7.607-0.675 13.786 1.873 18.539 7.646 4.754 5.776 7.132 11.725 7.132 17.84v20.39h66.55c6.334 0 11.567 1.532 15.685 4.589 4.124 3.057 5.861 7.982 5.232 14.782 0 14.268-8.876 21.404-26.624 21.404h-60.843l0.948 34.66 61.801 1.018c8.871-0.68 15.213 1.189 19.013 5.605 3.805 4.418 5.706 9.686 5.706 15.8 0 5.44-2.062 10.365-6.18 14.782-4.124 4.415-10.615 6.627-19.492 6.627h-61.795v19.366c10.776 10.873 20.6 21.41 29.471 31.604a1668.752 1668.752 0 0 1 22.818 24.97c7.606 8.497 13.308 14.444 17.113 17.84 14.578 13.593 17.748 25.483 9.506 35.677-4.435 6.12-10.14 9.176-17.113 9.176-6.97 0-13.306-2.72-19.013-8.154-3.169-2.72-8.558-7.645-16.164-14.781a1361.826 1361.826 0 0 1-22.82-21.918 6105.637 6105.637 0 0 1-29.47-29.562z m0 0"  horiz-adv-x="1024" />

    
    <glyph glyph-name="star-fill" unicode="&#58694;" d="M785.352-37.397c-4.075 0-8.151 0.97-11.833 3.007L512.207 108.098 250.943-34.389c-8.343-4.56-18.528-3.881-26.287 1.6-7.76 5.527-11.64 14.987-10.089 24.347l47.579 285.365L72.563 466.53c-6.594 6.547-8.971 16.295-6.11 25.122 2.814 8.85 10.38 15.398 19.546 16.949l285.513 47.577 118.53 236.99c4.171 8.391 12.803 13.701 22.165 13.701 9.36 0 17.993-5.31 22.164-13.701l118.53-236.99 285.511-47.577a24.85 24.85 0 0 0 19.593-16.95c2.814-8.874 0.487-18.574-6.109-25.121L762.264 276.922l47.578-285.365c1.501-9.36-2.377-18.82-10.088-24.348-4.267-3.006-9.36-4.606-14.402-4.606z"  horiz-adv-x="1024" />

    
    <glyph glyph-name="sofa" unicode="&#58695;" d="M940.699 493.422c-26.647 18.421-58.948 25.315-90.955 19.417a123.288 123.288 0 0 1-23.272-6.696V690.4c0 58.034-47.864 105.247-106.697 105.247H304.136c-58.833 0-106.698-47.213-106.698-105.246V502.51a122.84 122.84 0 0 1-23.418 6.762c-31.981 5.901-64.257-1.03-90.875-19.505-55.072-38.224-69.04-114.454-31.137-169.929l120.038-175.694c0.619-0.905 0.464-0.81 0.983-1.386 0.342-0.534 1.027-1.653 1.964-3.446 0.25-0.48 0.514-0.95 0.794-1.41l33.416-55.215a25.826 25.826 0 0 1-0.106-2.28c0-0.075 0.005-0.149 0.005-0.224 0-0.074-0.005-0.148-0.005-0.223v-82.008c0-14.138 11.46-25.6 25.598-25.6s25.598 11.462 25.598 25.6v56.854h497.245v-56.854c0-14.138 11.46-25.6 25.598-25.6s25.598 11.462 25.598 25.6V79.96c0 0.879-0.044 1.747-0.131 2.603l36.36 54.067a25.647 25.647 0 0 1 1.991 3.534c1.884 4.07 3.265 6.347 3.804 7.181 0.52 0.576 0.363 0.48 0.985 1.387L971.864 323.86c37.973 55.361 23.992 131.426-31.165 169.562z m-11.052-140.6L809.88 178.214c-1.723-2.314-4.78-6.913-8.48-14.618l-37.48-55.729c-0.41-0.61-0.782-1.232-1.132-1.86H254.933l-34.954 57.754c-2.579 4.855-4.675 7.983-6.032 9.809L94.277 348.724c-22.091 32.334-13.991 76.737 18.058 98.981 15.325 10.637 33.936 14.622 52.402 11.216 18.568-3.424 34.643-13.871 45.266-29.419l68.481-100.23c7.976-11.674 23.905-14.67 35.576-6.695 11.672 7.977 14.67 23.907 6.694 35.58l-68.481 100.231c-1.175 1.72-2.39 3.401-3.639 5.048V690.402c0 29.802 24.899 54.046 55.503 54.046h415.639c30.604 0 55.502-24.245 55.502-54.046v-223.116a123.016 123.016 0 0 1-3.736-5.152L680.19 328.951H440.442c-14.137 0-25.598-11.462-25.598-25.6 0-14.14 11.46-25.6 25.598-25.6H693.67c8.439 0 16.335 4.16 21.109 11.118l98.978 144.302c10.618 15.48 26.695 25.89 45.268 29.316 18.524 3.417 37.19-0.555 52.56-11.182 32.02-22.138 40.124-66.318 18.06-98.483z"  horiz-adv-x="1024" />

    
    <glyph glyph-name="star" unicode="&#58696;" d="M793.6-76.8a25.442 25.442 0 0 0-12.237 3.123L512 73.216 242.637-73.677c-8.602-4.71-19.098-4.045-27.085 1.639s-12.032 15.41-10.394 25.088l49.05 294.195L58.726 442.726c-6.758 6.759-9.216 16.794-6.297 25.908s10.7 15.872 20.173 17.459l294.348 49.05 122.164 244.326c4.352 8.653 13.21 14.131 22.886 14.131s18.586-5.478 22.886-14.131L657.05 535.142l294.348-49.05c9.472-1.586 17.255-8.294 20.173-17.458s0.512-19.15-6.297-25.908L769.792 247.245l49.05-294.195c1.587-9.677-2.458-19.405-10.394-25.088-4.403-3.124-9.626-4.762-14.848-4.762zM512 128c4.198 0 8.448-1.024 12.237-3.123l235.469-128.41-42.548 255.335a25.456 25.456 0 0 0 7.168 22.323L893.952 443.75l-258.15 43.008c-8.09 1.332-15.002 6.503-18.688 13.824L512 710.81 406.886 500.582a25.748 25.748 0 0 0-18.688-13.824l-258.15-43.008 169.626-169.625c5.836-5.837 8.499-14.131 7.168-22.323l-42.548-255.335 235.47 128.41A25.442 25.442 0 0 0 512 128z"  horiz-adv-x="1024" />

    
    <glyph glyph-name="survey" unicode="&#58697;" d="M731.498 848.986c39.13 0 70.893-31.604 70.893-70.53v-329.092L412.873 49.742h11.045-283.945c-39.162 0-70.874 31.46-70.874 70.29V848.987H45.444h686.054zM21.79 896v-775.967c0-64.814 52.911-117.305 118.183-117.305h293.864l6.952 7.03 402.128 406.648 6.783 6.86V778.454C849.7 843.335 796.77 896 731.498 896H21.79z m756.437-636.418l88.67-88.67 18.227-19.486 97.467 98.203-127.08 127.813-95.616-100.265 18.332-17.595z m139.142-6.635l-35.339-35.566-59.303 57.191 34.174 37.121 60.468-58.746zM772.34 291.261l-256.47-256.47-4.992-4.992-1.384-6.922-23.316-116.578-6.859-34.294 34.294 6.859 116.578 23.315 6.922 1.385 4.992 4.992 256.47 256.47 16.487 16.487-16.487 16.486-93.262 93.262-16.486 16.487-16.487-16.487z m16.207-49.977l60.69-59.894-236.178-233.485-75.636-16.439 18.83 77.75 232.294 232.068zM154.382 503.832h540.939c13.065 0 23.657 9.754 23.657 21.787s-10.592 21.787-23.657 21.787H154.382c-13.065 0-23.657-9.754-23.657-21.787s10.592-21.787 23.657-21.787z m0 152.51h540.939c13.065 0 23.657 9.754 23.657 21.787 0 12.032-10.592 21.787-23.657 21.787H154.382c-13.065 0-23.657-9.755-23.657-21.787 0-12.033 10.592-21.787 23.657-21.787z"  horiz-adv-x="1024" />

    
    <glyph glyph-name="templet" unicode="&#58698;" d="M1004.089 605.867L813.51 790.756c-14.222 14.222-34.133 19.91-54.044 19.91H654.222l-8.533-2.844c-36.978-19.91-85.333-31.289-133.689-31.289-48.356 0-96.711 11.378-133.689 31.29l-8.533 2.844h-99.556c-28.444 0-51.2-14.223-62.578-34.134L19.911 594.49C5.69 583.11 0 566.044 0 546.133S8.533 512 19.911 497.778l136.533-133.69c11.378-8.532 28.445-17.066 42.667-17.066V25.6c0-36.978 31.289-68.267 71.111-68.267h486.4c36.978 0 68.267 31.29 68.267 68.267V361.244c17.067 0 31.289 8.534 42.667 19.912l136.533 133.688c25.6 22.756 25.6 65.423 0 91.023zM725.333 403.91h-5.689l-22.755 17.067c-8.533 0-8.533-8.534-8.533-22.756s-2.845-253.155-2.845-253.155c0-2.845-5.689-8.534-8.533-8.534H355.556c-8.534 0-11.378 5.69-11.378 8.534V398.222c0 25.6 0 22.756-14.222 25.6l-22.756-19.91h-5.689l-93.867 91.021v5.689l128 125.156 2.845 2.844 2.844 5.69 2.845 2.844h56.889c31.289-17.067 68.266-22.756 108.089-22.756s76.8 8.533 108.088 22.756h65.423l128-125.156c2.844-2.844 2.844-2.844 0-5.689l-85.334-102.4z"  horiz-adv-x="1024" />

    
    <glyph glyph-name="tip" unicode="&#58699;" d="M916.33 209.8c-43.009 30.9-103.184 61.982-103.184 142.516v63.97c0 106.376-60.596 199.078-150.467 248.892v86.92C662.679 831.548 595.275 896 512.09 896S361.502 831.548 361.502 752.098v-86.739c-90.052-49.754-150.769-142.577-150.769-249.073v-63.97c0-80.836-60.657-111.857-103.725-142.878-7.59-4.578-14.577-10.18-20.6-16.565-0.181-0.12-0.362-0.3-0.603-0.481h0.12c-15.962-16.987-25.72-39.394-25.72-63.97v-127.82c0-17.649 14.939-31.985 33.491-31.985h299.37c7.83-54.513 56.62-96.617 115.952-96.617 59.212 0 108.002 42.104 115.833 96.617h305.393c18.492 0 33.49 14.336 33.49 31.985V129.626c-0.481 33.913-19.335 63.488-47.405 80.174zM428.423 752.098c0 44.092 37.526 79.932 83.666 79.932 46.14 0 83.667-35.84 83.667-79.932v-59.513c-26.624 7.35-54.693 11.505-83.847 11.505-28.974 0-56.923-4.156-83.486-11.444v59.452z m80.594-848.113c-40.658 0-74.631 27.889-82.1 64.632h164.08c-7.469-36.743-41.381-64.632-81.98-64.632z m387.795 128.602H127.127v95.835c0 9.878 4.577 16.926 8.493 21.142l0.3 0.301a32.204 32.204 0 0 0 6.928 5.542l2.289 1.446 2.168 1.506c4.578 3.373 9.457 6.686 14.397 10.059 43.37 29.816 115.953 79.691 115.953 183.898v63.97c0 123.422 105.11 223.834 234.255 223.834 129.204 0 234.315-100.412 234.315-223.834v-63.97c0-104.207 72.523-154.082 115.893-183.898a566.472 566.472 0 0 0 14.034-9.758l2.29-1.627 2.47-1.505c9.697-5.783 15.6-15.601 15.901-26.384v-96.557z"  horiz-adv-x="1024" />

    
    <glyph glyph-name="top" unicode="&#58700;" d="M554.667 424.235l88.96-88.96L704 395.605l-191.403 191.36-0.597-0.597-0.64 0.597L320 395.605l60.33-60.33 89.003 89.002V0h85.334V424.235zM768 640H256v85.333h512V640z"  horiz-adv-x="1024" />

    
    <glyph glyph-name="user" unicode="&#58701;" d="M494.4 337.6c115.2 0 208 92.8 208 208s-92.8 208-208 208c-113.6 0-208-92.8-208-208s92.8-208 208-208z m1.6-27.2C150.4 315.2 171.2-8 171.2-8H816s4.8 313.6-320 318.4z"  horiz-adv-x="1024" />

    
    <glyph glyph-name="zip" unicode="&#58702;" d="M905.179865 717.150272c-6.609955 6.158958-13.992905 13.019912-21.969851 20.407862-22.792846 21.112857-45.78069 42.227714-67.517542 61.94758-2.454983 2.225985-2.454983 2.225985-4.911967 4.44997-29.001803 26.256822-53.194639 47.660677-71.071518 62.743575-10.459929 8.82494-18.692873 15.432895-24.742833 19.791865-4.015973 2.89298-7.279951 4.976966-10.499928 6.502956-4.052973 1.921987-7.832947 3.092979-13.163911 2.99298C677.041411 895.720062 665.595489 884.22414 665.595489 869.810237V639.546798H895.993928l-25.599827 25.584827v-767.546798L895.993928-76.830347H230.379439c-42.476712 0-76.78048 34.205768-76.78048 76.622481V869.810237L127.999133 844.225411h460.796877c14.137904 0 25.599827 11.454922 25.599826 25.584826S602.933914 895.395064 588.79601 895.395064H102.399306v-895.60293C102.399306-70.910387 159.651918-128 230.379439-128H921.593754V690.716451H691.195316l25.599826-25.584826V869.810237c0-13.629908-11.051925-24.730832-24.531834-24.98383-4.561969-0.085999-7.197951 0.730995-9.739934 1.935987-0.268998 0.126999 0.816994-0.565996 2.500983-1.779988 4.749968-3.421977 12.116918-9.333937 21.656854-17.382882 17.322883-14.614901 41.129721-35.678758 69.727527-61.567583a6296.03733 6296.03733 0 0 0 4.870967-4.41497c21.591854-19.586867 44.453699-40.586725 67.128545-61.589583a9988.951301 9988.951301 0 0 0 21.855852-20.302862c3.939973-3.670975 6.749954-6.295957 8.229944-7.680948 10.31893-9.659935 26.51882-9.129938 36.183755 1.182992s9.134938 26.50382-1.183992 36.162755a5497.69274 5497.69274 0 0 1-8.313944 7.759947zM102.399306 434.866185H0v-434.943052h1023.99306V434.867185H153.598959v0.597996h-51.199653v-0.597996zM281.998089 117.198338h155.598945v-40.399726H220.798504v32.799778l150.598979 217.598525H221.798497V367.996638h210.99857v-31.999783L281.998089 117.198338z m252.398289-40.399726H483.99672V367.996638h50.399658v-291.198026zM647.195614 184.997879v-108.199267h-50.599657V367.996638H707.995202c32.53278 0 58.366604-8.466943 77.499474-25.399827 19.13287-16.932885 28.699805-39.332733 28.699806-67.199545 0-28.532807-9.366937-50.732656-28.09981-66.599549-18.732873-15.866892-44.965695-23.799839-78.699466-23.799838h-60.199592z m0 40.599725H707.995202c17.999878 0 31.732785 4.232971 41.19972 12.699913 9.466936 8.466943 14.199904 20.69986 14.199904 36.699752 0 15.732893-4.799967 28.299808-14.399902 37.699744-9.599935 9.399936-22.799845 14.232904-39.599732 14.499902h-62.199578v-101.599311z"  horiz-adv-x="1024" />

    
    <glyph glyph-name="add" unicode="&#58703;" d="M512-128C229.23-128 0 101.23 0 384S229.23 896 512 896s512-229.23 512-512-229.23-512-512-512z m0 928C282.258 800 96 613.742 96 384s186.258-416 416-416 416 186.258 416 416S741.742 800 512 800z m208.018-463.982h-160v-160.036a48.018 48.018 0 0 0-96.036 0V336.018h-160a47.982 47.982 0 0 0 0 95.964h160v160a48.018 48.018 0 0 0 96.036 0v-160h160a47.982 47.982 0 0 0 0-95.964z"  horiz-adv-x="1024" />

    
    <glyph glyph-name="account" unicode="&#58704;" d="M793.6 579.009c0 163.287-131.807 295.658-294.4 295.658S204.8 742.296 204.8 579.009c0-163.288 131.807-295.659 294.4-295.659S793.6 415.721 793.6 579.01z m-537.6 0c0 134.89 108.884 244.239 243.2 244.239 134.316 0 243.2-109.35 243.2-244.24 0-134.89-108.884-244.239-243.2-244.239-134.316 0-243.2 109.35-243.2 244.24zM0-102.29V-128h1024v25.71c0 230.827-236.91 437.06-512 437.06-16.552 0-33.01-0.67-49.34-2.003-14.092-1.149 22.596-13.553 23.74-27.706 14.95 1.22 10.431-21.71 25.6-21.71 248.31 0 460.8-184.975 460.8-385.642l25.6 25.71H25.6l25.6-25.71c0 136.534 85.814 261.346 224.064 330.852 12.642 6.356 17.76 21.802 11.431 34.498-6.329 12.697-21.709 17.837-34.351 11.48C97.582 196.733 0 54.805 0-102.29z"  horiz-adv-x="1024" />

    
    <glyph glyph-name="app" unicode="&#58705;" d="M1008.302 589.443l-218.61-218.61c-20.13-20.13-52.741-20.13-72.87 0l-218.583 218.61c-20.13 20.101-20.13 52.74 0 72.842l218.582 218.61c20.13 20.13 52.741 20.13 72.87 0l218.611-218.61c20.13-20.101 20.13-52.74 0-72.842zM753.67 841.177l-215.71-215.71 215.71-215.712 215.71 215.711-215.71 215.71z m-383.827-969.149H57.094c-31.417 0-56.863 25.447-56.863 56.864V241.639c0 31.389 25.446 56.864 56.863 56.864h312.748c31.388 0 56.863-25.475 56.863-56.864v-312.747c0-31.417-25.475-56.864-56.863-56.864z m0 369.611H57.094v-312.747h312.748V241.639z m0 142.158H57.094c-31.417 0-56.863 25.447-56.863 56.864V753.408c0 31.389 25.446 56.864 56.863 56.864h312.748c31.388 0 56.863-25.475 56.863-56.864v-312.747c0-31.417-25.475-56.864-56.863-56.864z m0 369.611H57.094v-312.747h312.748V753.408z m199.021-454.905h312.748c31.388 0 56.863-25.475 56.863-56.864v-312.747c0-31.417-25.475-56.864-56.863-56.864H568.863c-31.417 0-56.863 25.447-56.863 56.864V241.639c0 31.389 25.446 56.864 56.863 56.864z m0-369.611h312.748V241.639H568.863v-312.747z"  horiz-adv-x="1024" />

    
    <glyph glyph-name="add-groups" unicode="&#58706;" d="M318.942 511.012a34.7 34.7 0 1 1 391.761 0 34.7 34.7 0 1 1-391.761 0zM91.449 706.893a22.3 22.3 0 1 1 251.766 0 22.3 22.3 0 1 1-251.766 0zM23.144 373.275S15.806 601.332 90.884 574.8c0 0 37.822-24.273 79.03-33.87 0 0 46.853-11.29 107.255 5.646 0 0 0-97.659 33.87-152.415v-11.29s-46.854 0-124.19-58.143c0 0-129.835-22.58-163.705 48.547zM798.765 832.776c69.433 0 125.883-56.45 125.883-125.883s-55.885-126.448-125.883-126.448c-69.433 0-125.883 56.45-125.883 125.884s56.45 126.447 125.883 126.447zM998.598 377.226s3.951 228.057-71.692 199.832c0 0-35.563-24.273-79.03-33.87 0 0-46.853-11.29-107.254 3.952 0 0 1.693-97.658-29.919-154.673v-11.29s46.854 0 124.19-56.45c1.694 0 133.786-19.192 163.705 52.499zM550.386 90.46c0 104.433 84.675 189.108 189.107 189.108 36.128 0 69.998-10.161 98.787-27.66-49.676 111.206-152.415 97.658-152.415 97.658-43.466-35.564-95.964-62.095-154.108-67.74h-9.596c-45.16-1.694-88.626 12.983-105.561 20.886-35.564 11.29-63.789 29.919-82.981 49.112-1.694 0-1.694 1.693-1.694 1.693-162.011-11.29-165.962-231.444-165.962-231.444V30.06c0-52.499 41.208-95.965 94.27-95.965h374.263c-50.24 32.74-84.11 90.32-84.11 156.366zM864.811 73.526c0-1.694-1.129-2.823-2.822-2.823h-97.658v-97.658c0-1.693-1.13-2.822-2.823-2.822h-43.466c-1.694 0-2.823 1.129-2.823 2.822v97.658h-97.658c-1.693 0-2.822 1.13-2.822 2.823v43.466c0 1.694 1.129 2.823 2.822 2.823h97.658v97.658c0 1.693 1.13 2.822 2.823 2.822h43.466c1.694 0 2.823-1.129 2.823-2.822v-97.658h97.658c1.693 0 2.822-1.13 2.822-2.823v-43.466z"  horiz-adv-x="1024" />

    
    <glyph glyph-name="arrow-left" unicode="&#58707;" d="M769.8 827.196l-380.85-446.44 380.647-441.943-77.54-66.813-437.856 508.346L691.955 893.6z"  horiz-adv-x="1024" />

    
    <glyph glyph-name="arrow-down" unicode="&#58708;" d="M957.44 640L512 261.12 66.56 640 0 563.2 512 128l512 435.2z"  horiz-adv-x="1024" />

    
    <glyph glyph-name="arrow-right" unicode="&#58709;" d="M254.212-61.548l380.833 446.416L254.417 826.79 331.952 893.6l437.836-508.374L332.054-128z"  horiz-adv-x="1024" />

    
    <glyph glyph-name="statistics" unicode="&#58710;" d="M21.4-53.1c-5.6 0-11.2 2.3-15.1 6.3-4 4-6.3 9.5-6.3 15.1V791.8c0 11.8 9.6 21.4 21.4 21.4 11.8 0 21.4-9.6 21.4-21.4v-802.1h959.8c11.8 0 21.4-9.6 21.4-21.4 0-11.8-9.6-21.4-21.4-21.4H21.4zM272.3 87.4c0-22.8-18.6-41.4-41.4-41.4h-79.1c-22.8 0-41.5 18.6-41.5 41.4V175c0 22.8 18.7 41.4 41.5 41.4h79.1c22.8 0 41.4-18.6 41.4-41.4v-87.6z m205.9 0c0-22.8-18.7-41.4-41.5-41.4h-79.1c-22.8 0-41.5 18.6-41.5 41.4v275c0 22.8 18.7 41.4 41.5 41.4h79.1c22.8 0 41.5-18.6 41.5-41.4v-275zM900.4 89.7c0-24-19.7-43.7-43.7-43.7h-74.5c-24 0-43.7 19.7-43.7 43.7v358c0 24 19.6 43.7 43.7 43.7h74.5c24 0 43.7-19.7 43.7-43.7v-358zM684 87.4c0-22.8-18.7-41.4-41.5-41.4h-79.1c-22.8 0-41.5 18.6-41.5 41.4V277.3c0 22.8 18.7 41.4 41.5 41.4h79.1c22.8 0 41.5-18.6 41.5-41.4v-189.9zM867.3 748l-157.6-17.2 51.9-52L590.7 470 413.3 633.9c-12.1 11.2-30.9 11.3-43.1 0.3L109.5 398.8c-13.1-11.8-14.1-32.1-2.3-45.2 6.3-7 15-10.5 23.8-10.5 7.7 0 15.3 2.7 21.4 8.2l239 215.8 180.8-167.2c6.5-6 15.2-9 23.9-8.4 8.7 0.6 17 4.9 22.5 11.6L807 633.4l43.1-43.1L867.3 748z"  horiz-adv-x="1024" />

    
    <glyph glyph-name="key" unicode="&#58711;" d="M830.107 515.848h-87.113c0 139.904-106.913 246.831-243.197 246.831-136.475 0-243.216-106.927-243.216-246.83h-87.285c0 167.931 148.09 333.937 330.301 333.937s330.51-166.003 330.51-333.938zM940.648 372.73c0 48.02-39.085 87.085-87.113 87.085H155.568c-48.02 0-87.099-39.062-87.099-87.085v-413.614c0-48.042 39.077-87.099 87.099-87.099h697.796c48.013 0 87.098 39.057 87.098 87.1V372.73h0.186zM573.553 49.272c0-36.028-29.156-65.356-65.376-65.356h-9.343c-36.013 0-65.376 29.142-65.376 65.356V226.527c0 36.028 29.163 65.37 65.376 65.37h9.343c36.02 0 65.376-29.157 65.376-65.37v-177.255z"  horiz-adv-x="1024" />

    
    <glyph glyph-name="count" unicode="&#58712;" d="M579.83 445.666h443.726S1024.958 863.498 579.83 895.196M895.639 326.947c0-250.544-200.47-453.682-447.815-453.682C200.503-126.735 0 76.403 0 326.947 0 577.522 200.498 780.65 447.824 780.65v-453.703H895.64z"  horiz-adv-x="1024" />

    
    <glyph glyph-name="nav" unicode="&#58713;" d="M888.838 576.225h-751.1c-23.944 0-43.339 19.553-43.339 43.646v40.012c0 24.093 19.395 43.645 43.339 43.645h751.1c23.923 0 43.334-19.554 43.334-43.645v-40.012c-0.001-24.093-19.411-43.646-43.333-43.646z m0-267.734h-751.1c-23.944 0-43.339 19.533-43.339 43.64v39.998c0 24.115 19.395 43.647 43.339 43.647h751.1c23.923 0 43.334-19.533 43.334-43.647v-39.998c-0.001-24.107-19.411-43.64-43.333-43.64z m0-288.661h-751.1c-23.944 0-43.339 19.532-43.339 43.627v40.017c0 24.093 19.395 43.641 43.339 43.641h751.1c23.923 0 43.334-19.548 43.334-43.641v-40.017c-0.001-24.094-19.411-43.627-43.333-43.627z"  horiz-adv-x="1024" />

    
    <glyph glyph-name="close" unicode="&#58714;" d="M469.333 426.667H170.667v-85.334h298.666v-298.666h85.334V341.333h298.666v85.334H554.667V725.333h-85.334v-298.666z"  horiz-adv-x="1024" />

    
    <glyph glyph-name="more" unicode="&#58715;" d="M853.333 469.333a85.333 85.333 0 1 1 0-170.666 85.333 85.333 0 1 1 0 170.666zM512 469.333a85.333 85.333 0 1 1 0-170.666 85.333 85.333 0 1 1 0 170.666zM170.667 469.333a85.333 85.333 0 1 1 0-170.666 85.333 85.333 0 1 1 0 170.666z"  horiz-adv-x="1024" />

    
    <glyph glyph-name="comments" unicode="&#58716;" d="M819.789 95.023v-158.697l-156.847 96.562c-21.75-3.552-44.074-5.628-67-5.628-107.743 0-204.254 41.231-270.86 106.344 10.971-0.628 21.874-1.421 33.022-1.421 15.63 0 31.042 0.765 46.288 1.994 52.587-36.203 119.083-57.954 191.549-57.954 24.974 0 49.13 2.842 72.41 7.706l54.487-36.342-0.164-0.082 41.153-27.24v99.13c84.16 47.435 139.904 129.352 139.904 222.635 0 58.993-22.516 113.312-60.17 157.413 2.487 17.214 4.208 34.633 4.208 52.435 0 8.143-0.874 16.08-1.421 24.1 69.679-57.981 113.344-139.666 113.344-230.45 0-101.836-54.868-192.25-139.903-250.505zM428.057 195.138c-22.925 0-45.263 2.076-67 5.629L204.21 104.205V262.873C119.176 321.155 64.307 411.57 64.307 513.406c0 175.775 162.858 318.269 363.75 318.269 200.895 0 363.75-142.494 363.75-318.269 0-175.774-162.855-318.268-363.75-318.268z m0 580.577c-169.988 0-307.789-119.023-307.789-265.806 0-93.27 55.744-175.174 139.904-222.635v-99.131l41.15 27.242c-0.068 0.026-0.122 0.055-0.176 0.082l54.514 36.34c23.266-4.864 47.421-7.704 72.397-7.704 169.989 0 307.79 118.995 307.79 265.807 0 146.783-137.801 265.805-307.79 265.805zM609.933 467.94c-23.172 0-41.972 18.785-41.972 41.97 0 23.17 18.8 41.97 41.972 41.97 23.173 0 41.971-18.8 41.971-41.97 0-23.184-18.8-41.97-41.971-41.97z m-167.885 0c-23.185 0-41.972 18.785-41.972 41.97 0 23.17 18.786 41.97 41.972 41.97s41.971-18.8 41.971-41.97c0-23.184-18.785-41.97-41.971-41.97z m-167.885 0c-23.185 0-41.97 18.785-41.97 41.97 0 23.17 18.785 41.97 41.97 41.97s41.972-18.8 41.972-41.97c-0.001-23.184-18.787-41.97-41.972-41.97z"  horiz-adv-x="1024" />

    
    <glyph glyph-name="cut" unicode="&#58717;" d="M837.408 32.154c-2.595 0-5.133-0.232-7.64-0.565-0.307 4.696-1.723 9.373-4.559 13.518l-40.281 58.873L886.45 281.135c8.453 12.355 5.26 29.379-7.095 37.832l-1.927 1.319-120.245-175.751-120.246 175.751-1.927-1.319c-12.356-8.453-15.548-25.477-7.095-37.832L729.436 103.98l-40.281-58.873c-2.761-4.034-4.158-8.572-4.52-13.142-1.239 0.08-2.472 0.189-3.731 0.189-31.89 0-57.838-25.949-57.838-57.838 0-31.89 25.949-57.838 57.838-57.838 31.89 0 57.839 25.949 57.839 57.838 0 12.27-3.869 23.639-10.413 33.01 2.638 3.588 5.183 7.673 7.788 11.48l21.065 36.756 21.063-36.756c3.311-4.838 6.527-10.11 9.954-14.25-5.437-8.813-8.63-19.148-8.63-30.24 0-31.89 25.949-57.838 57.839-57.838 31.89 0 57.838 25.949 57.838 57.838s-25.949 57.838-57.839 57.838z m-156.504-88.459c-16.885 0-30.62 13.735-30.62 30.62s13.735 30.62 30.62 30.62 30.62-13.735 30.62-30.62-13.735-30.62-30.62-30.62z m156.504 0c-16.885 0-30.62 13.735-30.62 30.62s13.735 30.62 30.62 30.62 30.62-13.735 30.62-30.62c0.001-16.885-13.735-30.62-30.62-30.62zM795.358 163.879l-10.624-18.539 9.872-14.43c0.309 2.45 0.753 4.862 0.753 7.392v25.577zM681.146 145.34L573.178 333.746h82.651l77.111-112.704 62.418 91.228V741.325h-30.151c-33.168 0-60.302 27.136-60.302 60.302V831.778H252.638c-33.164 0-60.302-27.134-60.302-60.302v-633.173c0-33.164 27.137-60.302 60.302-60.302h382.436l46.072 67.339zM325.979 619.518h327.037c9.763 0 17.68-12.98 17.68-28.991s-7.916-28.991-17.68-28.991H325.979c-9.763 0-17.68 12.981-17.68 28.991s7.917 28.991 17.68 28.991z m0-105.093h327.037c9.763 0 17.68-12.981 17.68-28.991s-7.916-28.991-17.68-28.991H325.979c-9.763 0-17.68 12.981-17.68 28.991s7.917 28.991 17.68 28.991z m-17.68-126.837c0 16.01 7.917 28.991 17.68 28.991h327.037c9.763 0 17.68-12.981 17.68-28.991s-7.916-28.991-17.68-28.991H325.979c-9.763 0-17.68 12.98-17.68 28.991z"  horiz-adv-x="1024" />

    
    <glyph glyph-name="delete" unicode="&#58718;" d="M677.356 691.2v61.44c0 33.915-29.615 61.44-66.15 61.44H412.712c-36.577 0-66.191-27.525-66.191-61.44v-61.44H81.879v-61.44h99.246v-614.4c0-33.956 29.655-61.44 66.15-61.44h529.327c36.577 0 66.191 27.484 66.191 61.44v614.4h99.246V691.2H677.356z m-264.643 61.44h198.492v-61.44H412.713v61.44z m363.889-737.28H247.276v614.4h529.326v-614.4zM346.522 537.6h66.191v-430.08h-66.191V537.6z m132.341 0h66.15v-430.08h-66.15V537.6z m132.342 0h66.15v-430.08h-66.15V537.6z m0 0"  horiz-adv-x="1024" />

    
    <glyph glyph-name="up" unicode="&#58719;" d="M575.936 0.064c-70.656 0-128 57.344-128 128V384h320L383.936 895.936 0 384h320v-255.936c0-141.376 114.624-256 256-256h448v128H575.936z m0 0"  horiz-adv-x="1024" />

    
    </font>
</defs>
</svg>
